<svg xmlns="http://www.w3.org/2000/svg" xmlns:dc="http://purl.org/dc/elements/1.1/" xmlns:ns2="http://creativecommons.org/ns#" xmlns:ns4="http://www.w3.org/1999/xlink" xmlns:rdf="http://www.w3.org/1999/02/22-rdf-syntax-ns#" width="460.8pt" height="345.6pt" viewBox="0 0 460.8 345.6" version="1.1" onload="init(event)">
 <script type="text/ecmascript">


function init(event) {
    if ( window.svgDocument == null ) {
        svgDocument = event.target.ownerDocument;
        }
    }

function ShowTooltip(id) {
    for (const el of svgDocument.getElementsByTagName('*')) {
        if (el.id.startsWith(id)) {
            el.setAttribute('visibility', "visible")
        }
    }
}

function HideTooltip(id) {
    for (const el of svgDocument.getElementsByTagName('*')) {
        if (el.id.startsWith(id)) {
            el.setAttribute('visibility', "hidden")
        }
    }
}


</script><metadata>
  <rdf:RDF>
   <ns2:Work>
    <dc:type rdf:resource="http://purl.org/dc/dcmitype/StillImage" />
    <dc:date>2026-03-13T16:46:29.875009</dc:date>
    <dc:format>image/svg+xml</dc:format>
    <dc:creator>
     <ns2:Agent>
      <dc:title>Matplotlib v3.10.8, https://matplotlib.org/</dc:title>
     </ns2:Agent>
    </dc:creator>
   </ns2:Work>
  </rdf:RDF>
 </metadata>
 <defs>
  <style type="text/css">*{stroke-linejoin: round; stroke-linecap: butt}</style>
 </defs>
 <g id="figure_1">
  <g id="patch_1">
   <path d="M 0 345.6  L 460.8 345.6  L 460.8 0  L 0 0  z " style="fill: #ffffff" />
  </g>
  <g id="axes_1">
   <g id="patch_2">
    <path d="M 57.6 307.584  L 414.72 307.584  L 414.72 41.472  L 57.6 41.472  z " style="fill: #ffffff" />
   </g>
   <g id="matplotlib.axis_1">
    <g id="xtick_1">
     <g id="line2d_1">
      <path d="M 73.832727 307.584  L 73.832727 41.472  " clip-path="url(#pffb54f920f)" style="fill: none; stroke: #808080; stroke-width: 0.2; stroke-linecap: round" />
     </g>
     <g id="text_1">
      
      <g style="fill: #262626" transform="translate(71.052259 321.741812) scale(0.1 -0.1)">
       <defs>
        <path id="ArialMT-38" d="M 1131 2484  Q 781 2613 612 2850  Q 444 3088 444 3419  Q 444 3919 803 4259  Q 1163 4600 1759 4600  Q 2359 4600 2725 4251  Q 3091 3903 3091 3403  Q 3091 3084 2923 2848  Q 2756 2613 2416 2484  Q 2838 2347 3058 2040  Q 3278 1734 3278 1309  Q 3278 722 2862 322  Q 2447 -78 1769 -78  Q 1091 -78 675 323  Q 259 725 259 1325  Q 259 1772 486 2073  Q 713 2375 1131 2484  z M 1019 3438  Q 1019 3113 1228 2906  Q 1438 2700 1772 2700  Q 2097 2700 2305 2904  Q 2513 3109 2513 3406  Q 2513 3716 2298 3927  Q 2084 4138 1766 4138  Q 1444 4138 1231 3931  Q 1019 3725 1019 3438  z M 838 1322  Q 838 1081 952 856  Q 1066 631 1291 507  Q 1516 384 1775 384  Q 2178 384 2440 643  Q 2703 903 2703 1303  Q 2703 1709 2433 1975  Q 2163 2241 1756 2241  Q 1359 2241 1098 1978  Q 838 1716 838 1322  z " transform="scale(0.015625)" />
       </defs>
       <use ns4:href="#ArialMT-38" />
      </g>
     </g>
    </g>
    <g id="xtick_2">
     <g id="line2d_2">
      <path d="M 127.941818 307.584  L 127.941818 41.472  " clip-path="url(#pffb54f920f)" style="fill: none; stroke: #808080; stroke-width: 0.2; stroke-linecap: round" />
     </g>
     <g id="text_2">
      
      <g style="fill: #262626" transform="translate(122.380881 321.741812) scale(0.1 -0.1)">
       <defs>
        <path id="ArialMT-33" d="M 269 1209  L 831 1284  Q 928 806 1161 595  Q 1394 384 1728 384  Q 2125 384 2398 659  Q 2672 934 2672 1341  Q 2672 1728 2419 1979  Q 2166 2231 1775 2231  Q 1616 2231 1378 2169  L 1441 2663  Q 1497 2656 1531 2656  Q 1891 2656 2178 2843  Q 2466 3031 2466 3422  Q 2466 3731 2256 3934  Q 2047 4138 1716 4138  Q 1388 4138 1169 3931  Q 950 3725 888 3313  L 325 3413  Q 428 3978 793 4289  Q 1159 4600 1703 4600  Q 2078 4600 2393 4439  Q 2709 4278 2876 4000  Q 3044 3722 3044 3409  Q 3044 3113 2884 2869  Q 2725 2625 2413 2481  Q 2819 2388 3044 2092  Q 3269 1797 3269 1353  Q 3269 753 2831 336  Q 2394 -81 1725 -81  Q 1122 -81 723 278  Q 325 638 269 1209  z " transform="scale(0.015625)" />
        <path id="ArialMT-32" d="M 3222 541  L 3222 0  L 194 0  Q 188 203 259 391  Q 375 700 629 1000  Q 884 1300 1366 1694  Q 2113 2306 2375 2664  Q 2638 3022 2638 3341  Q 2638 3675 2398 3904  Q 2159 4134 1775 4134  Q 1369 4134 1125 3890  Q 881 3647 878 3216  L 300 3275  Q 359 3922 746 4261  Q 1134 4600 1788 4600  Q 2447 4600 2831 4234  Q 3216 3869 3216 3328  Q 3216 3053 3103 2787  Q 2991 2522 2730 2228  Q 2469 1934 1863 1422  Q 1356 997 1212 845  Q 1069 694 975 541  L 3222 541  z " transform="scale(0.015625)" />
       </defs>
       <use ns4:href="#ArialMT-33" />
       <use ns4:href="#ArialMT-32" transform="translate(55.615234 0)" />
      </g>
     </g>
    </g>
    <g id="xtick_3">
     <g id="line2d_3">
      <path d="M 182.050909 307.584  L 182.050909 41.472  " clip-path="url(#pffb54f920f)" style="fill: none; stroke: #808080; stroke-width: 0.2; stroke-linecap: round" />
     </g>
     <g id="text_3">
      
      <g style="fill: #262626" transform="translate(173.709503 321.741812) scale(0.1 -0.1)">
       <defs>
        <path id="ArialMT-31" d="M 2384 0  L 1822 0  L 1822 3584  Q 1619 3391 1289 3197  Q 959 3003 697 2906  L 697 3450  Q 1169 3672 1522 3987  Q 1875 4303 2022 4600  L 2384 4600  L 2384 0  z " transform="scale(0.015625)" />
       </defs>
       <use ns4:href="#ArialMT-31" />
       <use ns4:href="#ArialMT-32" transform="translate(55.615234 0)" />
       <use ns4:href="#ArialMT-38" transform="translate(111.230469 0)" />
      </g>
     </g>
    </g>
    <g id="xtick_4">
     <g id="line2d_4">
      <path d="M 236.16 307.584  L 236.16 41.472  " clip-path="url(#pffb54f920f)" style="fill: none; stroke: #808080; stroke-width: 0.2; stroke-linecap: round" />
     </g>
     <g id="text_4">
      
      <g style="fill: #262626" transform="translate(227.818594 321.741812) scale(0.1 -0.1)">
       <defs>
        <path id="ArialMT-35" d="M 266 1200  L 856 1250  Q 922 819 1161 601  Q 1400 384 1738 384  Q 2144 384 2425 690  Q 2706 997 2706 1503  Q 2706 1984 2436 2262  Q 2166 2541 1728 2541  Q 1456 2541 1237 2417  Q 1019 2294 894 2097  L 366 2166  L 809 4519  L 3088 4519  L 3088 3981  L 1259 3981  L 1013 2750  Q 1425 3038 1878 3038  Q 2478 3038 2890 2622  Q 3303 2206 3303 1553  Q 3303 931 2941 478  Q 2500 -78 1738 -78  Q 1113 -78 717 272  Q 322 622 266 1200  z " transform="scale(0.015625)" />
       </defs>
       <use ns4:href="#ArialMT-35" />
       <use ns4:href="#ArialMT-31" transform="translate(55.615234 0)" />
       <use ns4:href="#ArialMT-32" transform="translate(111.230469 0)" />
      </g>
     </g>
    </g>
    <g id="xtick_5">
     <g id="line2d_5">
      <path d="M 290.269091 307.584  L 290.269091 41.472  " clip-path="url(#pffb54f920f)" style="fill: none; stroke: #808080; stroke-width: 0.2; stroke-linecap: round" />
     </g>
     <g id="text_5">
      
      <g style="fill: #262626" transform="translate(279.147216 321.741812) scale(0.1 -0.1)">
       <defs>
        <path id="ArialMT-30" d="M 266 2259  Q 266 3072 433 3567  Q 600 4063 929 4331  Q 1259 4600 1759 4600  Q 2128 4600 2406 4451  Q 2684 4303 2865 4023  Q 3047 3744 3150 3342  Q 3253 2941 3253 2259  Q 3253 1453 3087 958  Q 2922 463 2592 192  Q 2263 -78 1759 -78  Q 1097 -78 719 397  Q 266 969 266 2259  z M 844 2259  Q 844 1131 1108 757  Q 1372 384 1759 384  Q 2147 384 2411 759  Q 2675 1134 2675 2259  Q 2675 3391 2411 3762  Q 2147 4134 1753 4134  Q 1366 4134 1134 3806  Q 844 3388 844 2259  z " transform="scale(0.015625)" />
        <path id="ArialMT-34" d="M 2069 0  L 2069 1097  L 81 1097  L 81 1613  L 2172 4581  L 2631 4581  L 2631 1613  L 3250 1613  L 3250 1097  L 2631 1097  L 2631 0  L 2069 0  z M 2069 1613  L 2069 3678  L 634 1613  L 2069 1613  z " transform="scale(0.015625)" />
       </defs>
       <use ns4:href="#ArialMT-32" />
       <use ns4:href="#ArialMT-30" transform="translate(55.615234 0)" />
       <use ns4:href="#ArialMT-34" transform="translate(111.230469 0)" />
       <use ns4:href="#ArialMT-38" transform="translate(166.845703 0)" />
      </g>
     </g>
    </g>
    <g id="xtick_6">
     <g id="line2d_6">
      <path d="M 344.378182 307.584  L 344.378182 41.472  " clip-path="url(#pffb54f920f)" style="fill: none; stroke: #808080; stroke-width: 0.2; stroke-linecap: round" />
     </g>
     <g id="text_6">
      
      <g style="fill: #262626" transform="translate(333.256307 321.741812) scale(0.1 -0.1)">
       <defs>
        <path id="ArialMT-39" d="M 350 1059  L 891 1109  Q 959 728 1153 556  Q 1347 384 1650 384  Q 1909 384 2104 503  Q 2300 622 2425 820  Q 2550 1019 2634 1356  Q 2719 1694 2719 2044  Q 2719 2081 2716 2156  Q 2547 1888 2255 1720  Q 1963 1553 1622 1553  Q 1053 1553 659 1965  Q 266 2378 266 3053  Q 266 3750 677 4175  Q 1088 4600 1706 4600  Q 2153 4600 2523 4359  Q 2894 4119 3086 3673  Q 3278 3228 3278 2384  Q 3278 1506 3087 986  Q 2897 466 2520 194  Q 2144 -78 1638 -78  Q 1100 -78 759 220  Q 419 519 350 1059  z M 2653 3081  Q 2653 3566 2395 3850  Q 2138 4134 1775 4134  Q 1400 4134 1122 3828  Q 844 3522 844 3034  Q 844 2597 1108 2323  Q 1372 2050 1759 2050  Q 2150 2050 2401 2323  Q 2653 2597 2653 3081  z " transform="scale(0.015625)" />
       </defs>
       <use ns4:href="#ArialMT-38" />
       <use ns4:href="#ArialMT-31" transform="translate(55.615234 0)" />
       <use ns4:href="#ArialMT-39" transform="translate(111.230469 0)" />
       <use ns4:href="#ArialMT-32" transform="translate(166.845703 0)" />
      </g>
     </g>
    </g>
    <g id="xtick_7">
     <g id="line2d_7">
      <path d="M 398.487273 307.584  L 398.487273 41.472  " clip-path="url(#pffb54f920f)" style="fill: none; stroke: #808080; stroke-width: 0.2; stroke-linecap: round" />
     </g>
     <g id="text_7">
      
      <g style="fill: #262626" transform="translate(384.584929 321.741812) scale(0.1 -0.1)">
       <defs>
        <path id="ArialMT-37" d="M 303 3981  L 303 4522  L 3269 4522  L 3269 4084  Q 2831 3619 2401 2847  Q 1972 2075 1738 1259  Q 1569 684 1522 0  L 944 0  Q 953 541 1156 1306  Q 1359 2072 1739 2783  Q 2119 3494 2547 3981  L 303 3981  z " transform="scale(0.015625)" />
        <path id="ArialMT-36" d="M 3184 3459  L 2625 3416  Q 2550 3747 2413 3897  Q 2184 4138 1850 4138  Q 1581 4138 1378 3988  Q 1113 3794 959 3422  Q 806 3050 800 2363  Q 1003 2672 1297 2822  Q 1591 2972 1913 2972  Q 2475 2972 2870 2558  Q 3266 2144 3266 1488  Q 3266 1056 3080 686  Q 2894 316 2569 119  Q 2244 -78 1831 -78  Q 1128 -78 684 439  Q 241 956 241 2144  Q 241 3472 731 4075  Q 1159 4600 1884 4600  Q 2425 4600 2770 4297  Q 3116 3994 3184 3459  z M 888 1484  Q 888 1194 1011 928  Q 1134 663 1356 523  Q 1578 384 1822 384  Q 2178 384 2434 671  Q 2691 959 2691 1453  Q 2691 1928 2437 2201  Q 2184 2475 1800 2475  Q 1419 2475 1153 2201  Q 888 1928 888 1484  z " transform="scale(0.015625)" />
       </defs>
       <use ns4:href="#ArialMT-33" />
       <use ns4:href="#ArialMT-32" transform="translate(55.615234 0)" />
       <use ns4:href="#ArialMT-37" transform="translate(111.230469 0)" />
       <use ns4:href="#ArialMT-36" transform="translate(166.845703 0)" />
       <use ns4:href="#ArialMT-38" transform="translate(222.460938 0)" />
      </g>
     </g>
    </g>
    <g id="text_8">
     
     <g style="fill: #262626" transform="translate(191.6975 335.009) scale(0.1 -0.1)">
      <defs>
       <path id="ArialMT-70" d="M 422 -1272  L 422 3319  L 934 3319  L 934 2888  Q 1116 3141 1344 3267  Q 1572 3394 1897 3394  Q 2322 3394 2647 3175  Q 2972 2956 3137 2557  Q 3303 2159 3303 1684  Q 3303 1175 3120 767  Q 2938 359 2589 142  Q 2241 -75 1856 -75  Q 1575 -75 1351 44  Q 1128 163 984 344  L 984 -1272  L 422 -1272  z M 931 1641  Q 931 1000 1190 694  Q 1450 388 1819 388  Q 2194 388 2461 705  Q 2728 1022 2728 1688  Q 2728 2322 2467 2637  Q 2206 2953 1844 2953  Q 1484 2953 1207 2617  Q 931 2281 931 1641  z " transform="scale(0.015625)" />
       <path id="ArialMT-61" d="M 2588 409  Q 2275 144 1986 34  Q 1697 -75 1366 -75  Q 819 -75 525 192  Q 231 459 231 875  Q 231 1119 342 1320  Q 453 1522 633 1644  Q 813 1766 1038 1828  Q 1203 1872 1538 1913  Q 2219 1994 2541 2106  Q 2544 2222 2544 2253  Q 2544 2597 2384 2738  Q 2169 2928 1744 2928  Q 1347 2928 1158 2789  Q 969 2650 878 2297  L 328 2372  Q 403 2725 575 2942  Q 747 3159 1072 3276  Q 1397 3394 1825 3394  Q 2250 3394 2515 3294  Q 2781 3194 2906 3042  Q 3031 2891 3081 2659  Q 3109 2516 3109 2141  L 3109 1391  Q 3109 606 3145 398  Q 3181 191 3288 0  L 2700 0  Q 2613 175 2588 409  z M 2541 1666  Q 2234 1541 1622 1453  Q 1275 1403 1131 1340  Q 988 1278 909 1158  Q 831 1038 831 891  Q 831 666 1001 516  Q 1172 366 1500 366  Q 1825 366 2078 508  Q 2331 650 2450 897  Q 2541 1088 2541 1459  L 2541 1666  z " transform="scale(0.015625)" />
       <path id="ArialMT-79" d="M 397 -1278  L 334 -750  Q 519 -800 656 -800  Q 844 -800 956 -737  Q 1069 -675 1141 -563  Q 1194 -478 1313 -144  Q 1328 -97 1363 -6  L 103 3319  L 709 3319  L 1400 1397  Q 1534 1031 1641 628  Q 1738 1016 1872 1384  L 2581 3319  L 3144 3319  L 1881 -56  Q 1678 -603 1566 -809  Q 1416 -1088 1222 -1217  Q 1028 -1347 759 -1347  Q 597 -1347 397 -1278  z " transform="scale(0.015625)" />
       <path id="ArialMT-6c" d="M 409 0  L 409 4581  L 972 4581  L 972 0  L 409 0  z " transform="scale(0.015625)" />
       <path id="ArialMT-6f" d="M 213 1659  Q 213 2581 725 3025  Q 1153 3394 1769 3394  Q 2453 3394 2887 2945  Q 3322 2497 3322 1706  Q 3322 1066 3130 698  Q 2938 331 2570 128  Q 2203 -75 1769 -75  Q 1072 -75 642 372  Q 213 819 213 1659  z M 791 1659  Q 791 1022 1069 705  Q 1347 388 1769 388  Q 2188 388 2466 706  Q 2744 1025 2744 1678  Q 2744 2294 2464 2611  Q 2184 2928 1769 2928  Q 1347 2928 1069 2612  Q 791 2297 791 1659  z " transform="scale(0.015625)" />
       <path id="ArialMT-64" d="M 2575 0  L 2575 419  Q 2259 -75 1647 -75  Q 1250 -75 917 144  Q 584 363 401 755  Q 219 1147 219 1656  Q 219 2153 384 2558  Q 550 2963 881 3178  Q 1213 3394 1622 3394  Q 1922 3394 2156 3267  Q 2391 3141 2538 2938  L 2538 4581  L 3097 4581  L 3097 0  L 2575 0  z M 797 1656  Q 797 1019 1065 703  Q 1334 388 1700 388  Q 2069 388 2326 689  Q 2584 991 2584 1609  Q 2584 2291 2321 2609  Q 2059 2928 1675 2928  Q 1300 2928 1048 2622  Q 797 2316 797 1656  z " transform="scale(0.015625)" />
       <path id="ArialMT-20" transform="scale(0.015625)" />
       <path id="ArialMT-73" d="M 197 991  L 753 1078  Q 800 744 1014 566  Q 1228 388 1613 388  Q 2000 388 2187 545  Q 2375 703 2375 916  Q 2375 1106 2209 1216  Q 2094 1291 1634 1406  Q 1016 1563 777 1677  Q 538 1791 414 1992  Q 291 2194 291 2438  Q 291 2659 392 2848  Q 494 3038 669 3163  Q 800 3259 1026 3326  Q 1253 3394 1513 3394  Q 1903 3394 2198 3281  Q 2494 3169 2634 2976  Q 2775 2784 2828 2463  L 2278 2388  Q 2241 2644 2061 2787  Q 1881 2931 1553 2931  Q 1166 2931 1000 2803  Q 834 2675 834 2503  Q 834 2394 903 2306  Q 972 2216 1119 2156  Q 1203 2125 1616 2013  Q 2213 1853 2448 1751  Q 2684 1650 2818 1456  Q 2953 1263 2953 975  Q 2953 694 2789 445  Q 2625 197 2315 61  Q 2006 -75 1616 -75  Q 969 -75 630 194  Q 291 463 197 991  z " transform="scale(0.015625)" />
       <path id="ArialMT-69" d="M 425 3934  L 425 4581  L 988 4581  L 988 3934  L 425 3934  z M 425 0  L 425 3319  L 988 3319  L 988 0  L 425 0  z " transform="scale(0.015625)" />
       <path id="ArialMT-7a" d="M 125 0  L 125 456  L 2238 2881  Q 1878 2863 1603 2863  L 250 2863  L 250 3319  L 2963 3319  L 2963 2947  L 1166 841  L 819 456  Q 1197 484 1528 484  L 3063 484  L 3063 0  L 125 0  z " transform="scale(0.015625)" />
       <path id="ArialMT-65" d="M 2694 1069  L 3275 997  Q 3138 488 2766 206  Q 2394 -75 1816 -75  Q 1088 -75 661 373  Q 234 822 234 1631  Q 234 2469 665 2931  Q 1097 3394 1784 3394  Q 2450 3394 2872 2941  Q 3294 2488 3294 1666  Q 3294 1616 3291 1516  L 816 1516  Q 847 969 1125 678  Q 1403 388 1819 388  Q 2128 388 2347 550  Q 2566 713 2694 1069  z M 847 1978  L 2700 1978  Q 2663 2397 2488 2606  Q 2219 2931 1791 2931  Q 1403 2931 1139 2672  Q 875 2413 847 1978  z " transform="scale(0.015625)" />
       <path id="ArialMT-28" d="M 1497 -1347  Q 1031 -759 709 28  Q 388 816 388 1659  Q 388 2403 628 3084  Q 909 3875 1497 4659  L 1900 4659  Q 1522 4009 1400 3731  Q 1209 3300 1100 2831  Q 966 2247 966 1656  Q 966 153 1900 -1347  L 1497 -1347  z " transform="scale(0.015625)" />
       <path id="ArialMT-62" d="M 941 0  L 419 0  L 419 4581  L 981 4581  L 981 2947  Q 1338 3394 1891 3394  Q 2197 3394 2470 3270  Q 2744 3147 2920 2923  Q 3097 2700 3197 2384  Q 3297 2069 3297 1709  Q 3297 856 2875 390  Q 2453 -75 1863 -75  Q 1275 -75 941 416  L 941 0  z M 934 1684  Q 934 1088 1097 822  Q 1363 388 1816 388  Q 2184 388 2453 708  Q 2722 1028 2722 1663  Q 2722 2313 2464 2622  Q 2206 2931 1841 2931  Q 1472 2931 1203 2611  Q 934 2291 934 1684  z " transform="scale(0.015625)" />
       <path id="ArialMT-74" d="M 1650 503  L 1731 6  Q 1494 -44 1306 -44  Q 1000 -44 831 53  Q 663 150 594 308  Q 525 466 525 972  L 525 2881  L 113 2881  L 113 3319  L 525 3319  L 525 4141  L 1084 4478  L 1084 3319  L 1650 3319  L 1650 2881  L 1084 2881  L 1084 941  Q 1084 700 1114 631  Q 1144 563 1211 522  Q 1278 481 1403 481  Q 1497 481 1650 503  z " transform="scale(0.015625)" />
       <path id="ArialMT-29" d="M 791 -1347  L 388 -1347  Q 1322 153 1322 1656  Q 1322 2244 1188 2822  Q 1081 3291 891 3722  Q 769 4003 388 4659  L 791 4659  Q 1378 3875 1659 3084  Q 1900 2403 1900 1659  Q 1900 816 1576 28  Q 1253 -759 791 -1347  z " transform="scale(0.015625)" />
      </defs>
      <use ns4:href="#ArialMT-70" />
      <use ns4:href="#ArialMT-61" transform="translate(55.615234 0)" />
      <use ns4:href="#ArialMT-79" transform="translate(111.230469 0)" />
      <use ns4:href="#ArialMT-6c" transform="translate(161.230469 0)" />
      <use ns4:href="#ArialMT-6f" transform="translate(183.447266 0)" />
      <use ns4:href="#ArialMT-61" transform="translate(239.0625 0)" />
      <use ns4:href="#ArialMT-64" transform="translate(294.677734 0)" />
      <use ns4:href="#ArialMT-20" transform="translate(350.292969 0)" />
      <use ns4:href="#ArialMT-73" transform="translate(378.076172 0)" />
      <use ns4:href="#ArialMT-69" transform="translate(428.076172 0)" />
      <use ns4:href="#ArialMT-7a" transform="translate(450.292969 0)" />
      <use ns4:href="#ArialMT-65" transform="translate(500.292969 0)" />
      <use ns4:href="#ArialMT-20" transform="translate(555.908203 0)" />
      <use ns4:href="#ArialMT-28" transform="translate(583.691406 0)" />
      <use ns4:href="#ArialMT-62" transform="translate(616.992188 0)" />
      <use ns4:href="#ArialMT-79" transform="translate(672.607422 0)" />
      <use ns4:href="#ArialMT-74" transform="translate(722.607422 0)" />
      <use ns4:href="#ArialMT-65" transform="translate(750.390625 0)" />
      <use ns4:href="#ArialMT-73" transform="translate(806.005859 0)" />
      <use ns4:href="#ArialMT-29" transform="translate(856.005859 0)" />
     </g>
    </g>
   </g>
   <g id="matplotlib.axis_2">
    <g id="ytick_1">
     <g id="line2d_8">
      <path d="M 57.6 253.701993  L 414.72 253.701993  " clip-path="url(#pffb54f920f)" style="fill: none; stroke: #808080; stroke-width: 0.2; stroke-linecap: round" />
     </g>
     <g id="text_9">
      
      <g style="fill: #262626" transform="translate(34.9 258.858243) scale(0.1 -0.1)">
       <use ns4:href="#ArialMT-31" transform="translate(0 0.99375)" />
       <use ns4:href="#ArialMT-30" transform="translate(55.615234 0.99375)" />
       <use ns4:href="#ArialMT-36" transform="translate(112.972813 70.6875) scale(0.7)" />
      </g>
     </g>
    </g>
    <g id="ytick_2">
     <g id="line2d_9">
      <path d="M 57.6 302.858509  L 414.72 302.858509  " clip-path="url(#pffb54f920f)" style="fill: none; stroke-dasharray: 0.1,0.165; stroke-dashoffset: 0; stroke: #808080; stroke-width: 0.1" />
     </g>
    </g>
    <g id="ytick_3">
     <g id="line2d_10">
      <path d="M 57.6 288.02466  L 414.72 288.02466  " clip-path="url(#pffb54f920f)" style="fill: none; stroke-dasharray: 0.1,0.165; stroke-dashoffset: 0; stroke: #808080; stroke-width: 0.1" />
     </g>
    </g>
    <g id="ytick_4">
     <g id="line2d_11">
      <path d="M 57.6 275.174995  L 414.72 275.174995  " clip-path="url(#pffb54f920f)" style="fill: none; stroke-dasharray: 0.1,0.165; stroke-dashoffset: 0; stroke: #808080; stroke-width: 0.1" />
     </g>
    </g>
    <g id="ytick_5">
     <g id="line2d_12">
      <path d="M 57.6 263.840788  L 414.72 263.840788  " clip-path="url(#pffb54f920f)" style="fill: none; stroke-dasharray: 0.1,0.165; stroke-dashoffset: 0; stroke: #808080; stroke-width: 0.1" />
     </g>
    </g>
    <g id="ytick_6">
     <g id="line2d_13">
      <path d="M 57.6 187.000758  L 414.72 187.000758  " clip-path="url(#pffb54f920f)" style="fill: none; stroke-dasharray: 0.1,0.165; stroke-dashoffset: 0; stroke: #808080; stroke-width: 0.1" />
     </g>
    </g>
    <g id="ytick_7">
     <g id="line2d_14">
      <path d="M 57.6 147.983037  L 414.72 147.983037  " clip-path="url(#pffb54f920f)" style="fill: none; stroke-dasharray: 0.1,0.165; stroke-dashoffset: 0; stroke: #808080; stroke-width: 0.1" />
     </g>
    </g>
    <g id="ytick_8">
     <g id="line2d_15">
      <path d="M 57.6 120.299523  L 414.72 120.299523  " clip-path="url(#pffb54f920f)" style="fill: none; stroke-dasharray: 0.1,0.165; stroke-dashoffset: 0; stroke: #808080; stroke-width: 0.1" />
     </g>
    </g>
    <g id="ytick_9">
     <g id="line2d_16">
      <path d="M 57.6 98.826521  L 414.72 98.826521  " clip-path="url(#pffb54f920f)" style="fill: none; stroke-dasharray: 0.1,0.165; stroke-dashoffset: 0; stroke: #808080; stroke-width: 0.1" />
     </g>
    </g>
    <g id="ytick_10">
     <g id="line2d_17">
      <path d="M 57.6 81.281801  L 414.72 81.281801  " clip-path="url(#pffb54f920f)" style="fill: none; stroke-dasharray: 0.1,0.165; stroke-dashoffset: 0; stroke: #808080; stroke-width: 0.1" />
     </g>
    </g>
    <g id="ytick_11">
     <g id="line2d_18">
      <path d="M 57.6 66.447952  L 414.72 66.447952  " clip-path="url(#pffb54f920f)" style="fill: none; stroke-dasharray: 0.1,0.165; stroke-dashoffset: 0; stroke: #808080; stroke-width: 0.1" />
     </g>
    </g>
    <g id="ytick_12">
     <g id="line2d_19">
      <path d="M 57.6 53.598288  L 414.72 53.598288  " clip-path="url(#pffb54f920f)" style="fill: none; stroke-dasharray: 0.1,0.165; stroke-dashoffset: 0; stroke: #808080; stroke-width: 0.1" />
     </g>
    </g>
    <g id="ytick_13">
     <g id="line2d_20">
      <path d="M 57.6 42.26408  L 414.72 42.26408  " clip-path="url(#pffb54f920f)" style="fill: none; stroke-dasharray: 0.1,0.165; stroke-dashoffset: 0; stroke: #808080; stroke-width: 0.1" />
     </g>
    </g>
    <g id="text_10">
     
     <g style="fill: #262626" transform="translate(28.795312 208.978781) rotate(-90) scale(0.1 -0.1)">
      <defs>
       <path id="ArialMT-6d" d="M 422 0  L 422 3319  L 925 3319  L 925 2853  Q 1081 3097 1340 3245  Q 1600 3394 1931 3394  Q 2300 3394 2536 3241  Q 2772 3088 2869 2813  Q 3263 3394 3894 3394  Q 4388 3394 4653 3120  Q 4919 2847 4919 2278  L 4919 0  L 4359 0  L 4359 2091  Q 4359 2428 4304 2576  Q 4250 2725 4106 2815  Q 3963 2906 3769 2906  Q 3419 2906 3187 2673  Q 2956 2441 2956 1928  L 2956 0  L 2394 0  L 2394 2156  Q 2394 2531 2256 2718  Q 2119 2906 1806 2906  Q 1569 2906 1367 2781  Q 1166 2656 1075 2415  Q 984 2175 984 1722  L 984 0  L 422 0  z " transform="scale(0.015625)" />
       <path id="ArialMT-6e" d="M 422 0  L 422 3319  L 928 3319  L 928 2847  Q 1294 3394 1984 3394  Q 2284 3394 2536 3286  Q 2788 3178 2913 3003  Q 3038 2828 3088 2588  Q 3119 2431 3119 2041  L 3119 0  L 2556 0  L 2556 2019  Q 2556 2363 2490 2533  Q 2425 2703 2258 2804  Q 2091 2906 1866 2906  Q 1506 2906 1245 2678  Q 984 2450 984 1813  L 984 0  L 422 0  z " transform="scale(0.015625)" />
       <path id="ArialMT-67" d="M 319 -275  L 866 -356  Q 900 -609 1056 -725  Q 1266 -881 1628 -881  Q 2019 -881 2231 -725  Q 2444 -569 2519 -288  Q 2563 -116 2559 434  Q 2191 0 1641 0  Q 956 0 581 494  Q 206 988 206 1678  Q 206 2153 378 2554  Q 550 2956 876 3175  Q 1203 3394 1644 3394  Q 2231 3394 2613 2919  L 2613 3319  L 3131 3319  L 3131 450  Q 3131 -325 2973 -648  Q 2816 -972 2473 -1159  Q 2131 -1347 1631 -1347  Q 1038 -1347 672 -1080  Q 306 -813 319 -275  z M 784 1719  Q 784 1066 1043 766  Q 1303 466 1694 466  Q 2081 466 2343 764  Q 2606 1063 2606 1700  Q 2606 2309 2336 2618  Q 2066 2928 1684 2928  Q 1309 2928 1046 2623  Q 784 2319 784 1719  z " transform="scale(0.015625)" />
       <path id="ArialMT-2f" d="M 0 -78  L 1328 4659  L 1778 4659  L 453 -78  L 0 -78  z " transform="scale(0.015625)" />
      </defs>
      <use ns4:href="#ArialMT-6d" />
      <use ns4:href="#ArialMT-65" transform="translate(83.300781 0)" />
      <use ns4:href="#ArialMT-64" transform="translate(138.916016 0)" />
      <use ns4:href="#ArialMT-69" transform="translate(194.53125 0)" />
      <use ns4:href="#ArialMT-61" transform="translate(216.748047 0)" />
      <use ns4:href="#ArialMT-6e" transform="translate(272.363281 0)" />
      <use ns4:href="#ArialMT-20" transform="translate(327.978516 0)" />
      <use ns4:href="#ArialMT-28" transform="translate(355.761719 0)" />
      <use ns4:href="#ArialMT-6d" transform="translate(389.0625 0)" />
      <use ns4:href="#ArialMT-73" transform="translate(472.363281 0)" />
      <use ns4:href="#ArialMT-67" transform="translate(522.363281 0)" />
      <use ns4:href="#ArialMT-2f" transform="translate(577.978516 0)" />
      <use ns4:href="#ArialMT-73" transform="translate(605.761719 0)" />
      <use ns4:href="#ArialMT-29" transform="translate(655.761719 0)" />
     </g>
    </g>
   </g>
   <g id="FillBetweenPolyCollection_1">
    <defs>
     <path id="m8828101ea1" d="M 73.832727 -189.351814  L 73.832727 -185.862043  L 127.941818 -181.373166  L 182.050909 -176.709504  L 236.16 -145.137582  L 290.269091 -140.480427  L 344.378182 -117.166127  L 398.487273 -59.003028  L 398.487273 -59.36596  L 398.487273 -59.36596  L 344.378182 -117.7828  L 290.269091 -143.57477  L 236.16 -148.283853  L 182.050909 -179.086799  L 127.941818 -191.566404  L 73.832727 -189.351814  z " style="stroke: #da6600; stroke-opacity: 0.2" />
    </defs>
    <g clip-path="url(#pffb54f920f)">
     <use ns4:href="#m8828101ea1" x="0" y="345.6" style="fill: #da6600; fill-opacity: 0.2; stroke: #da6600; stroke-opacity: 0.2" />
    </g>
   </g>
   <g id="FillBetweenPolyCollection_2">
    <defs>
     <path id="m8a2d9c00be" d="M 73.832727 -184.649333  L 73.832727 -178.253325  L 127.941818 -172.180847  L 182.050909 -168.186558  L 236.16 -137.624681  L 290.269091 -132.43967  L 344.378182 -108.135789  L 398.487273 -50.112  L 398.487273 -53.545754  L 398.487273 -53.545754  L 344.378182 -111.413467  L 290.269091 -136.683069  L 236.16 -141.045934  L 182.050909 -171.196955  L 127.941818 -180.307367  L 73.832727 -184.649333  z " style="stroke: #ff7f0e; stroke-opacity: 0.2" />
    </defs>
    <g clip-path="url(#pffb54f920f)">
     <use ns4:href="#m8a2d9c00be" x="0" y="345.6" style="fill: #ff7f0e; fill-opacity: 0.2; stroke: #ff7f0e; stroke-opacity: 0.2" />
    </g>
   </g>
   <g id="FillBetweenPolyCollection_3">
    <defs>
     <path id="m17c33eae29" d="M 73.832727 -254.194046  L 73.832727 -239.314723  L 127.941818 -230.477369  L 182.050909 -218.169434  L 236.16 -211.817794  L 290.269091 -185.74289  L 344.378182 -135.648209  L 398.487273 -68.54349  L 398.487273 -69.16177  L 398.487273 -69.16177  L 344.378182 -136.011874  L 290.269091 -186.098682  L 236.16 -213.55178  L 182.050909 -220.366595  L 127.941818 -234.129743  L 73.832727 -254.194046  z " style="stroke: #217821; stroke-opacity: 0.2" />
    </defs>
    <g clip-path="url(#pffb54f920f)">
     <use ns4:href="#m17c33eae29" x="0" y="345.6" style="fill: #217821; fill-opacity: 0.2; stroke: #217821; stroke-opacity: 0.2" />
    </g>
   </g>
   <g id="FillBetweenPolyCollection_4">
    <defs>
     <path id="m1bd14eeba4" d="M 73.832727 -240.843462  L 73.832727 -239.269181  L 127.941818 -223.348396  L 182.050909 -210.7676  L 236.16 -203.295843  L 290.269091 -176.64079  L 344.378182 -126.050084  L 398.487273 -59.327436  L 398.487273 -62.787219  L 398.487273 -62.787219  L 344.378182 -129.302987  L 290.269091 -179.903039  L 236.16 -206.485497  L 182.050909 -214.153234  L 127.941818 -225.613315  L 73.832727 -240.843462  z " style="stroke: #2ca02c; stroke-opacity: 0.2" />
    </defs>
    <g clip-path="url(#pffb54f920f)">
     <use ns4:href="#m1bd14eeba4" x="0" y="345.6" style="fill: #2ca02c; fill-opacity: 0.2; stroke: #2ca02c; stroke-opacity: 0.2" />
    </g>
   </g>
   <g id="FillBetweenPolyCollection_5">
    <defs>
     <path id="m0d10014193" d="M 73.832727 -292.032  L 73.832727 -291.780339  L 127.941818 -278.965016  L 182.050909 -271.079247  L 236.16 -250.521383  L 290.269091 -208.306166  L 344.378182 -137.52886  L 398.487273 -68.516955  L 398.487273 -68.996579  L 398.487273 -68.996579  L 344.378182 -137.749405  L 290.269091 -215.877307  L 236.16 -251.050525  L 182.050909 -271.200265  L 127.941818 -279.114117  L 73.832727 -292.032  z " style="stroke: #185a88; stroke-opacity: 0.2" />
    </defs>
    <g clip-path="url(#pffb54f920f)">
     <use ns4:href="#m0d10014193" x="0" y="345.6" style="fill: #185a88; fill-opacity: 0.2; stroke: #185a88; stroke-opacity: 0.2" />
    </g>
   </g>
   <g id="FillBetweenPolyCollection_6">
    <defs>
     <path id="mbbd66c42bf" d="M 73.832727 -286.233316  L 73.832727 -283.430426  L 127.941818 -270.902227  L 182.050909 -261.7551  L 236.16 -241.532043  L 290.269091 -200.887593  L 344.378182 -129.350124  L 398.487273 -59.46895  L 398.487273 -62.158525  L 398.487273 -62.158525  L 344.378182 -131.687707  L 290.269091 -210.221775  L 236.16 -243.005183  L 182.050909 -265.330788  L 127.941818 -273.487259  L 73.832727 -286.233316  z " style="stroke: #1f77b4; stroke-opacity: 0.2" />
    </defs>
    <g clip-path="url(#pffb54f920f)">
     <use ns4:href="#mbbd66c42bf" x="0" y="345.6" style="fill: #1f77b4; fill-opacity: 0.2; stroke: #1f77b4; stroke-opacity: 0.2" />
    </g>
   </g>
   <g id="_matelot_line_255e3c32__child0" onmouseover="ShowTooltip('_matelot_tooltip_255e3c32__child0')" onmouseout="HideTooltip('_matelot_tooltip_255e3c32__child0')">
    <path d="M 73.832727 157.367276  L 127.941818 161.038446  L 182.050909 167.769808  L 236.16 198.968271  L 290.269091 203.274254  L 344.378182 227.930108  L 398.487273 286.433118  " clip-path="url(#pffb54f920f)" style="fill: none; stroke: #da6600; stroke-width: 1.5; stroke-linecap: round" />
    <defs>
     <path id="m0448a291f6" d="M 0 3  C 0.795609 3 1.55874 2.683901 2.12132 2.12132  C 2.683901 1.55874 3 0.795609 3 0  C 3 -0.795609 2.683901 -1.55874 2.12132 -2.12132  C 1.55874 -2.683901 0.795609 -3 0 -3  C -0.795609 -3 -1.55874 -2.683901 -2.12132 -2.12132  C -2.683901 -1.55874 -3 -0.795609 -3 0  C -3 0.795609 -2.683901 1.55874 -2.12132 2.12132  C -1.55874 2.683901 -0.795609 3 0 3  z " style="stroke: #ffffff; stroke-width: 0.75" />
    </defs>
    <g clip-path="url(#pffb54f920f)">
     <use ns4:href="#m0448a291f6" x="73.832727" y="157.367276" style="fill: #da6600; stroke: #ffffff; stroke-width: 0.75" />
     <use ns4:href="#m0448a291f6" x="127.941818" y="161.038446" style="fill: #da6600; stroke: #ffffff; stroke-width: 0.75" />
     <use ns4:href="#m0448a291f6" x="182.050909" y="167.769808" style="fill: #da6600; stroke: #ffffff; stroke-width: 0.75" />
     <use ns4:href="#m0448a291f6" x="236.16" y="198.968271" style="fill: #da6600; stroke: #ffffff; stroke-width: 0.75" />
     <use ns4:href="#m0448a291f6" x="290.269091" y="203.274254" style="fill: #da6600; stroke: #ffffff; stroke-width: 0.75" />
     <use ns4:href="#m0448a291f6" x="344.378182" y="227.930108" style="fill: #da6600; stroke: #ffffff; stroke-width: 0.75" />
     <use ns4:href="#m0448a291f6" x="398.487273" y="286.433118" style="fill: #da6600; stroke: #ffffff; stroke-width: 0.75" />
    </g>
   </g>
   <g id="_matelot_line_255e3c32__child2" onmouseover="ShowTooltip('_matelot_tooltip_255e3c32__child2')" onmouseout="HideTooltip('_matelot_tooltip_255e3c32__child2')">
    <path d="M 73.832727 164.745366  L 127.941818 168.661134  L 182.050909 174.915454  L 236.16 206.550334  L 290.269091 210.956427  L 344.378182 236.97022  L 398.487273 293.336589  " clip-path="url(#pffb54f920f)" style="fill: none; stroke: #ff7f0e; stroke-width: 1.5; stroke-linecap: round" />
    <defs>
     <path id="mdf20ad521a" d="M 0 3  C 0.795609 3 1.55874 2.683901 2.12132 2.12132  C 2.683901 1.55874 3 0.795609 3 0  C 3 -0.795609 2.683901 -1.55874 2.12132 -2.12132  C 1.55874 -2.683901 0.795609 -3 0 -3  C -0.795609 -3 -1.55874 -2.683901 -2.12132 -2.12132  C -2.683901 -1.55874 -3 -0.795609 -3 0  C -3 0.795609 -2.683901 1.55874 -2.12132 2.12132  C -1.55874 2.683901 -0.795609 3 0 3  z " style="stroke: #ffffff; stroke-width: 0.75" />
    </defs>
    <g clip-path="url(#pffb54f920f)">
     <use ns4:href="#mdf20ad521a" x="73.832727" y="164.745366" style="fill: #ff7f0e; stroke: #ffffff; stroke-width: 0.75" />
     <use ns4:href="#mdf20ad521a" x="127.941818" y="168.661134" style="fill: #ff7f0e; stroke: #ffffff; stroke-width: 0.75" />
     <use ns4:href="#mdf20ad521a" x="182.050909" y="174.915454" style="fill: #ff7f0e; stroke: #ffffff; stroke-width: 0.75" />
     <use ns4:href="#mdf20ad521a" x="236.16" y="206.550334" style="fill: #ff7f0e; stroke: #ffffff; stroke-width: 0.75" />
     <use ns4:href="#mdf20ad521a" x="290.269091" y="210.956427" style="fill: #ff7f0e; stroke: #ffffff; stroke-width: 0.75" />
     <use ns4:href="#mdf20ad521a" x="344.378182" y="236.97022" style="fill: #ff7f0e; stroke: #ffffff; stroke-width: 0.75" />
     <use ns4:href="#mdf20ad521a" x="398.487273" y="293.336589" style="fill: #ff7f0e; stroke: #ffffff; stroke-width: 0.75" />
    </g>
   </g>
   <g id="_matelot_line_255e3c32__child4" onmouseover="ShowTooltip('_matelot_tooltip_255e3c32__child4')" onmouseout="HideTooltip('_matelot_tooltip_255e3c32__child4')">
    <path d="M 73.832727 98.652782  L 127.941818 113.492221  L 182.050909 126.112142  L 236.16 133.310353  L 290.269091 159.598917  L 344.378182 209.732618  L 398.487273 276.702725  " clip-path="url(#pffb54f920f)" style="fill: none; stroke: #217821; stroke-width: 1.5; stroke-linecap: round" />
    <defs>
     <path id="mb1d50f5754" d="M 0 3  C 0.795609 3 1.55874 2.683901 2.12132 2.12132  C 2.683901 1.55874 3 0.795609 3 0  C 3 -0.795609 2.683901 -1.55874 2.12132 -2.12132  C 1.55874 -2.683901 0.795609 -3 0 -3  C -0.795609 -3 -1.55874 -2.683901 -2.12132 -2.12132  C -2.683901 -1.55874 -3 -0.795609 -3 0  C -3 0.795609 -2.683901 1.55874 -2.12132 2.12132  C -1.55874 2.683901 -0.795609 3 0 3  z " style="stroke: #ffffff; stroke-width: 0.75" />
    </defs>
    <g clip-path="url(#pffb54f920f)">
     <use ns4:href="#mb1d50f5754" x="73.832727" y="98.652782" style="fill: #217821; stroke: #ffffff; stroke-width: 0.75" />
     <use ns4:href="#mb1d50f5754" x="127.941818" y="113.492221" style="fill: #217821; stroke: #ffffff; stroke-width: 0.75" />
     <use ns4:href="#mb1d50f5754" x="182.050909" y="126.112142" style="fill: #217821; stroke: #ffffff; stroke-width: 0.75" />
     <use ns4:href="#mb1d50f5754" x="236.16" y="133.310353" style="fill: #217821; stroke: #ffffff; stroke-width: 0.75" />
     <use ns4:href="#mb1d50f5754" x="290.269091" y="159.598917" style="fill: #217821; stroke: #ffffff; stroke-width: 0.75" />
     <use ns4:href="#mb1d50f5754" x="344.378182" y="209.732618" style="fill: #217821; stroke: #ffffff; stroke-width: 0.75" />
     <use ns4:href="#mb1d50f5754" x="398.487273" y="276.702725" style="fill: #217821; stroke: #ffffff; stroke-width: 0.75" />
    </g>
   </g>
   <g id="_matelot_line_255e3c32__child6" onmouseover="ShowTooltip('_matelot_tooltip_255e3c32__child6')" onmouseout="HideTooltip('_matelot_tooltip_255e3c32__child6')">
    <path d="M 73.832727 105.181592  L 127.941818 121.808699  L 182.050909 132.258617  L 236.16 140.729876  L 290.269091 167.475919  L 344.378182 216.82464  L 398.487273 284.508327  " clip-path="url(#pffb54f920f)" style="fill: none; stroke: #2ca02c; stroke-width: 1.5; stroke-linecap: round" />
    <defs>
     <path id="m67fae52cc2" d="M 0 3  C 0.795609 3 1.55874 2.683901 2.12132 2.12132  C 2.683901 1.55874 3 0.795609 3 0  C 3 -0.795609 2.683901 -1.55874 2.12132 -2.12132  C 1.55874 -2.683901 0.795609 -3 0 -3  C -0.795609 -3 -1.55874 -2.683901 -2.12132 -2.12132  C -2.683901 -1.55874 -3 -0.795609 -3 0  C -3 0.795609 -2.683901 1.55874 -2.12132 2.12132  C -1.55874 2.683901 -0.795609 3 0 3  z " style="stroke: #ffffff; stroke-width: 0.75" />
    </defs>
    <g clip-path="url(#pffb54f920f)">
     <use ns4:href="#m67fae52cc2" x="73.832727" y="105.181592" style="fill: #2ca02c; stroke: #ffffff; stroke-width: 0.75" />
     <use ns4:href="#m67fae52cc2" x="127.941818" y="121.808699" style="fill: #2ca02c; stroke: #ffffff; stroke-width: 0.75" />
     <use ns4:href="#m67fae52cc2" x="182.050909" y="132.258617" style="fill: #2ca02c; stroke: #ffffff; stroke-width: 0.75" />
     <use ns4:href="#m67fae52cc2" x="236.16" y="140.729876" style="fill: #2ca02c; stroke: #ffffff; stroke-width: 0.75" />
     <use ns4:href="#m67fae52cc2" x="290.269091" y="167.475919" style="fill: #2ca02c; stroke: #ffffff; stroke-width: 0.75" />
     <use ns4:href="#m67fae52cc2" x="344.378182" y="216.82464" style="fill: #2ca02c; stroke: #ffffff; stroke-width: 0.75" />
     <use ns4:href="#m67fae52cc2" x="398.487273" y="284.508327" style="fill: #2ca02c; stroke: #ffffff; stroke-width: 0.75" />
    </g>
   </g>
   <g id="_matelot_line_255e3c32__child8" onmouseover="ShowTooltip('_matelot_tooltip_255e3c32__child8')" onmouseout="HideTooltip('_matelot_tooltip_255e3c32__child8')">
    <path d="M 73.832727 53.726158  L 127.941818 66.586821  L 182.050909 74.443465  L 236.16 94.858337  L 290.269091 133.360169  L 344.378182 207.969969  L 398.487273 276.878883  " clip-path="url(#pffb54f920f)" style="fill: none; stroke: #185a88; stroke-width: 1.5; stroke-linecap: round" />
    <defs>
     <path id="mce29a1a651" d="M 0 3  C 0.795609 3 1.55874 2.683901 2.12132 2.12132  C 2.683901 1.55874 3 0.795609 3 0  C 3 -0.795609 2.683901 -1.55874 2.12132 -2.12132  C 1.55874 -2.683901 0.795609 -3 0 -3  C -0.795609 -3 -1.55874 -2.683901 -2.12132 -2.12132  C -2.683901 -1.55874 -3 -0.795609 -3 0  C -3 0.795609 -2.683901 1.55874 -2.12132 2.12132  C -1.55874 2.683901 -0.795609 3 0 3  z " style="stroke: #ffffff; stroke-width: 0.75" />
    </defs>
    <g clip-path="url(#pffb54f920f)">
     <use ns4:href="#mce29a1a651" x="73.832727" y="53.726158" style="fill: #185a88; stroke: #ffffff; stroke-width: 0.75" />
     <use ns4:href="#mce29a1a651" x="127.941818" y="66.586821" style="fill: #185a88; stroke: #ffffff; stroke-width: 0.75" />
     <use ns4:href="#mce29a1a651" x="182.050909" y="74.443465" style="fill: #185a88; stroke: #ffffff; stroke-width: 0.75" />
     <use ns4:href="#mce29a1a651" x="236.16" y="94.858337" style="fill: #185a88; stroke: #ffffff; stroke-width: 0.75" />
     <use ns4:href="#mce29a1a651" x="290.269091" y="133.360169" style="fill: #185a88; stroke: #ffffff; stroke-width: 0.75" />
     <use ns4:href="#mce29a1a651" x="344.378182" y="207.969969" style="fill: #185a88; stroke: #ffffff; stroke-width: 0.75" />
     <use ns4:href="#mce29a1a651" x="398.487273" y="276.878883" style="fill: #185a88; stroke: #ffffff; stroke-width: 0.75" />
    </g>
   </g>
   <g id="_matelot_line_255e3c32__child10" onmouseover="ShowTooltip('_matelot_tooltip_255e3c32__child10')" onmouseout="HideTooltip('_matelot_tooltip_255e3c32__child10')">
    <path d="M 73.832727 60.465154  L 127.941818 73.415766  L 182.050909 82.22544  L 236.16 103.295234  L 290.269091 141.20823  L 344.378182 214.702013  L 398.487273 284.994299  " clip-path="url(#pffb54f920f)" style="fill: none; stroke: #1f77b4; stroke-width: 1.5; stroke-linecap: round" />
    <defs>
     <path id="m4b501cf3c8" d="M 0 3  C 0.795609 3 1.55874 2.683901 2.12132 2.12132  C 2.683901 1.55874 3 0.795609 3 0  C 3 -0.795609 2.683901 -1.55874 2.12132 -2.12132  C 1.55874 -2.683901 0.795609 -3 0 -3  C -0.795609 -3 -1.55874 -2.683901 -2.12132 -2.12132  C -2.683901 -1.55874 -3 -0.795609 -3 0  C -3 0.795609 -2.683901 1.55874 -2.12132 2.12132  C -1.55874 2.683901 -0.795609 3 0 3  z " style="stroke: #ffffff; stroke-width: 0.75" />
    </defs>
    <g clip-path="url(#pffb54f920f)">
     <use ns4:href="#m4b501cf3c8" x="73.832727" y="60.465154" style="fill: #1f77b4; stroke: #ffffff; stroke-width: 0.75" />
     <use ns4:href="#m4b501cf3c8" x="127.941818" y="73.415766" style="fill: #1f77b4; stroke: #ffffff; stroke-width: 0.75" />
     <use ns4:href="#m4b501cf3c8" x="182.050909" y="82.22544" style="fill: #1f77b4; stroke: #ffffff; stroke-width: 0.75" />
     <use ns4:href="#m4b501cf3c8" x="236.16" y="103.295234" style="fill: #1f77b4; stroke: #ffffff; stroke-width: 0.75" />
     <use ns4:href="#m4b501cf3c8" x="290.269091" y="141.20823" style="fill: #1f77b4; stroke: #ffffff; stroke-width: 0.75" />
     <use ns4:href="#m4b501cf3c8" x="344.378182" y="214.702013" style="fill: #1f77b4; stroke: #ffffff; stroke-width: 0.75" />
     <use ns4:href="#m4b501cf3c8" x="398.487273" y="284.994299" style="fill: #1f77b4; stroke: #ffffff; stroke-width: 0.75" />
    </g>
   </g>
   <g id="line2d_21" />
   <g id="line2d_22" />
   <g id="line2d_23" />
   <g id="line2d_24" />
   <g id="line2d_25" />
   <g id="line2d_26" />
   <g id="patch_3">
    <path d="M 57.6 307.584  L 57.6 41.472  " style="fill: none; stroke: #cccccc; stroke-width: 0.8; stroke-linejoin: miter; stroke-linecap: square" />
   </g>
   <g id="patch_4">
    <path d="M 414.72 307.584  L 414.72 41.472  " style="fill: none; stroke: #cccccc; stroke-width: 0.8; stroke-linejoin: miter; stroke-linecap: square" />
   </g>
   <g id="patch_5">
    <path d="M 57.6 307.584  L 414.72 307.584  " style="fill: none; stroke: #cccccc; stroke-width: 0.8; stroke-linejoin: miter; stroke-linecap: square" />
   </g>
   <g id="patch_6">
    <path d="M 57.6 41.472  L 414.72 41.472  " style="fill: none; stroke: #cccccc; stroke-width: 0.8; stroke-linejoin: miter; stroke-linecap: square" />
   </g>
   <g id="_matelot_tooltip_255e3c32__child0_0" visibility="hidden">
    <g id="patch_7">
     <path d="M 73.832727 152.183121  L 104.401477 152.183121  Q 106.401477 152.183121 106.401477 150.183121  L 106.401477 141.037808  Q 106.401477 139.037808 104.401477 139.037808  L 73.832727 139.037808  Q 71.832727 139.037808 71.832727 141.037808  L 71.832727 150.183121  Q 71.832727 152.183121 73.832727 152.183121  z " style="fill: #ffffff; stroke: #cccccc; stroke-linejoin: miter" />
    </g>
    
    <g style="fill: #262626" transform="translate(73.832727 148.195621) scale(0.1 -0.1)">
     <defs>
      <path id="ArialMT-2e" d="M 581 0  L 581 641  L 1222 641  L 1222 0  L 581 0  z " transform="scale(0.015625)" />
      <path id="ArialMT-4d" d="M 475 0  L 475 4581  L 1388 4581  L 2472 1338  Q 2622 884 2691 659  Q 2769 909 2934 1394  L 4031 4581  L 4847 4581  L 4847 0  L 4263 0  L 4263 3834  L 2931 0  L 2384 0  L 1059 3900  L 1059 0  L 475 0  z " transform="scale(0.015625)" />
     </defs>
     <use ns4:href="#ArialMT-32" />
     <use ns4:href="#ArialMT-2e" transform="translate(55.615234 0)" />
     <use ns4:href="#ArialMT-37" transform="translate(83.398438 0)" />
     <use ns4:href="#ArialMT-32" transform="translate(139.013672 0)" />
     <use ns4:href="#ArialMT-20" transform="translate(194.628906 0)" />
     <use ns4:href="#ArialMT-4d" transform="translate(222.412109 0)" />
    </g>
   </g>
   <g id="_matelot_tooltip_255e3c32__child0_1" visibility="hidden">
    <g id="patch_8">
     <path d="M 127.941818 155.854291  L 158.510568 155.854291  Q 160.510568 155.854291 160.510568 153.854291  L 160.510568 144.708979  Q 160.510568 142.708979 158.510568 142.708979  L 127.941818 142.708979  Q 125.941818 142.708979 125.941818 144.708979  L 125.941818 153.854291  Q 125.941818 155.854291 127.941818 155.854291  z " style="fill: #ffffff; stroke: #cccccc; stroke-linejoin: miter" />
    </g>
    
    <g style="fill: #262626" transform="translate(127.941818 151.866791) scale(0.1 -0.1)">
     <use ns4:href="#ArialMT-32" />
     <use ns4:href="#ArialMT-2e" transform="translate(55.615234 0)" />
     <use ns4:href="#ArialMT-36" transform="translate(83.398438 0)" />
     <use ns4:href="#ArialMT-32" transform="translate(139.013672 0)" />
     <use ns4:href="#ArialMT-20" transform="translate(194.628906 0)" />
     <use ns4:href="#ArialMT-4d" transform="translate(222.412109 0)" />
    </g>
   </g>
   <g id="_matelot_tooltip_255e3c32__child0_2" visibility="hidden">
    <g id="patch_9">
     <path d="M 182.050909 162.585653  L 212.619659 162.585653  Q 214.619659 162.585653 214.619659 160.585653  L 214.619659 151.44034  Q 214.619659 149.44034 212.619659 149.44034  L 182.050909 149.44034  Q 180.050909 149.44034 180.050909 151.44034  L 180.050909 160.585653  Q 180.050909 162.585653 182.050909 162.585653  z " style="fill: #ffffff; stroke: #cccccc; stroke-linejoin: miter" />
    </g>
    
    <g style="fill: #262626" transform="translate(182.050909 158.598153) scale(0.1 -0.1)">
     <use ns4:href="#ArialMT-32" />
     <use ns4:href="#ArialMT-2e" transform="translate(55.615234 0)" />
     <use ns4:href="#ArialMT-34" transform="translate(83.398438 0)" />
     <use ns4:href="#ArialMT-34" transform="translate(139.013672 0)" />
     <use ns4:href="#ArialMT-20" transform="translate(194.628906 0)" />
     <use ns4:href="#ArialMT-4d" transform="translate(222.412109 0)" />
    </g>
   </g>
   <g id="_matelot_tooltip_255e3c32__child0_3" visibility="hidden">
    <g id="patch_10">
     <path d="M 236.16 193.784116  L 266.72875 193.784116  Q 268.72875 193.784116 268.72875 191.784116  L 268.72875 182.638803  Q 268.72875 180.638803 266.72875 180.638803  L 236.16 180.638803  Q 234.16 180.638803 234.16 182.638803  L 234.16 191.784116  Q 234.16 193.784116 236.16 193.784116  z " style="fill: #ffffff; stroke: #cccccc; stroke-linejoin: miter" />
    </g>
    
    <g style="fill: #262626" transform="translate(236.16 189.796616) scale(0.1 -0.1)">
     <use ns4:href="#ArialMT-31" />
     <use ns4:href="#ArialMT-2e" transform="translate(55.615234 0)" />
     <use ns4:href="#ArialMT-37" transform="translate(83.398438 0)" />
     <use ns4:href="#ArialMT-37" transform="translate(139.013672 0)" />
     <use ns4:href="#ArialMT-20" transform="translate(194.628906 0)" />
     <use ns4:href="#ArialMT-4d" transform="translate(222.412109 0)" />
    </g>
   </g>
   <g id="_matelot_tooltip_255e3c32__child0_4" visibility="hidden">
    <g id="patch_11">
     <path d="M 290.269091 198.090099  L 320.837841 198.090099  Q 322.837841 198.090099 322.837841 196.090099  L 322.837841 186.944787  Q 322.837841 184.944787 320.837841 184.944787  L 290.269091 184.944787  Q 288.269091 184.944787 288.269091 186.944787  L 288.269091 196.090099  Q 288.269091 198.090099 290.269091 198.090099  z " style="fill: #ffffff; stroke: #cccccc; stroke-linejoin: miter" />
    </g>
    
    <g style="fill: #262626" transform="translate(290.269091 194.102599) scale(0.1 -0.1)">
     <use ns4:href="#ArialMT-31" />
     <use ns4:href="#ArialMT-2e" transform="translate(55.615234 0)" />
     <use ns4:href="#ArialMT-36" transform="translate(83.398438 0)" />
     <use ns4:href="#ArialMT-39" transform="translate(139.013672 0)" />
     <use ns4:href="#ArialMT-20" transform="translate(194.628906 0)" />
     <use ns4:href="#ArialMT-4d" transform="translate(222.412109 0)" />
    </g>
   </g>
   <g id="_matelot_tooltip_255e3c32__child0_5" visibility="hidden">
    <g id="patch_12">
     <path d="M 344.378182 222.745953  L 374.946932 222.745953  Q 376.946932 222.745953 376.946932 220.745953  L 376.946932 211.60064  Q 376.946932 209.60064 374.946932 209.60064  L 344.378182 209.60064  Q 342.378182 209.60064 342.378182 211.60064  L 342.378182 220.745953  Q 342.378182 222.745953 344.378182 222.745953  z " style="fill: #ffffff; stroke: #cccccc; stroke-linejoin: miter" />
    </g>
    
    <g style="fill: #262626" transform="translate(344.378182 218.758453) scale(0.1 -0.1)">
     <use ns4:href="#ArialMT-31" />
     <use ns4:href="#ArialMT-2e" transform="translate(55.615234 0)" />
     <use ns4:href="#ArialMT-33" transform="translate(83.398438 0)" />
     <use ns4:href="#ArialMT-31" transform="translate(139.013672 0)" />
     <use ns4:href="#ArialMT-20" transform="translate(194.628906 0)" />
     <use ns4:href="#ArialMT-4d" transform="translate(222.412109 0)" />
    </g>
   </g>
   <g id="_matelot_tooltip_255e3c32__child0_6" visibility="hidden">
    <g id="patch_13">
     <path d="M 398.487273 281.248963  L 436.11071 281.248963  Q 438.11071 281.248963 438.11071 279.248963  L 438.11071 270.10365  Q 438.11071 268.10365 436.11071 268.10365  L 398.487273 268.10365  Q 396.487273 268.10365 396.487273 270.10365  L 396.487273 279.248963  Q 396.487273 281.248963 398.487273 281.248963  z " style="fill: #ffffff; stroke: #cccccc; stroke-linejoin: miter" />
    </g>
    
    <g style="fill: #262626" transform="translate(398.487273 277.261463) scale(0.1 -0.1)">
     <defs>
      <path id="ArialMT-6b" d="M 425 0  L 425 4581  L 988 4581  L 988 1969  L 2319 3319  L 3047 3319  L 1778 2088  L 3175 0  L 2481 0  L 1384 1697  L 988 1316  L 988 0  L 425 0  z " transform="scale(0.015625)" />
     </defs>
     <use ns4:href="#ArialMT-37" />
     <use ns4:href="#ArialMT-31" transform="translate(55.615234 0)" />
     <use ns4:href="#ArialMT-31" transform="translate(103.855469 0)" />
     <use ns4:href="#ArialMT-2e" transform="translate(159.470703 0)" />
     <use ns4:href="#ArialMT-36" transform="translate(187.253906 0)" />
     <use ns4:href="#ArialMT-37" transform="translate(242.869141 0)" />
     <use ns4:href="#ArialMT-20" transform="translate(298.484375 0)" />
     <use ns4:href="#ArialMT-6b" transform="translate(326.267578 0)" />
    </g>
   </g>
   <g id="_matelot_tooltip_255e3c32__child2_0" visibility="hidden">
    <g id="patch_14">
     <path d="M 73.832727 159.561212  L 104.401477 159.561212  Q 106.401477 159.561212 106.401477 157.561212  L 106.401477 148.415899  Q 106.401477 146.415899 104.401477 146.415899  L 73.832727 146.415899  Q 71.832727 146.415899 71.832727 148.415899  L 71.832727 157.561212  Q 71.832727 159.561212 73.832727 159.561212  z " style="fill: #ffffff; stroke: #cccccc; stroke-linejoin: miter" />
    </g>
    
    <g style="fill: #262626" transform="translate(73.832727 155.573712) scale(0.1 -0.1)">
     <use ns4:href="#ArialMT-32" />
     <use ns4:href="#ArialMT-2e" transform="translate(55.615234 0)" />
     <use ns4:href="#ArialMT-35" transform="translate(83.398438 0)" />
     <use ns4:href="#ArialMT-32" transform="translate(139.013672 0)" />
     <use ns4:href="#ArialMT-20" transform="translate(194.628906 0)" />
     <use ns4:href="#ArialMT-4d" transform="translate(222.412109 0)" />
    </g>
   </g>
   <g id="_matelot_tooltip_255e3c32__child2_1" visibility="hidden">
    <g id="patch_15">
     <path d="M 127.941818 163.476979  L 158.510568 163.476979  Q 160.510568 163.476979 160.510568 161.476979  L 160.510568 152.331666  Q 160.510568 150.331666 158.510568 150.331666  L 127.941818 150.331666  Q 125.941818 150.331666 125.941818 152.331666  L 125.941818 161.476979  Q 125.941818 163.476979 127.941818 163.476979  z " style="fill: #ffffff; stroke: #cccccc; stroke-linejoin: miter" />
    </g>
    
    <g style="fill: #262626" transform="translate(127.941818 159.489479) scale(0.1 -0.1)">
     <use ns4:href="#ArialMT-32" />
     <use ns4:href="#ArialMT-2e" transform="translate(55.615234 0)" />
     <use ns4:href="#ArialMT-34" transform="translate(83.398438 0)" />
     <use ns4:href="#ArialMT-32" transform="translate(139.013672 0)" />
     <use ns4:href="#ArialMT-20" transform="translate(194.628906 0)" />
     <use ns4:href="#ArialMT-4d" transform="translate(222.412109 0)" />
    </g>
   </g>
   <g id="_matelot_tooltip_255e3c32__child2_2" visibility="hidden">
    <g id="patch_16">
     <path d="M 182.050909 169.731299  L 212.619659 169.731299  Q 214.619659 169.731299 214.619659 167.731299  L 214.619659 158.585987  Q 214.619659 156.585987 212.619659 156.585987  L 182.050909 156.585987  Q 180.050909 156.585987 180.050909 158.585987  L 180.050909 167.731299  Q 180.050909 169.731299 182.050909 169.731299  z " style="fill: #ffffff; stroke: #cccccc; stroke-linejoin: miter" />
    </g>
    
    <g style="fill: #262626" transform="translate(182.050909 165.743799) scale(0.1 -0.1)">
     <use ns4:href="#ArialMT-32" />
     <use ns4:href="#ArialMT-2e" transform="translate(55.615234 0)" />
     <use ns4:href="#ArialMT-32" transform="translate(83.398438 0)" />
     <use ns4:href="#ArialMT-37" transform="translate(139.013672 0)" />
     <use ns4:href="#ArialMT-20" transform="translate(194.628906 0)" />
     <use ns4:href="#ArialMT-4d" transform="translate(222.412109 0)" />
    </g>
   </g>
   <g id="_matelot_tooltip_255e3c32__child2_3" visibility="hidden">
    <g id="patch_17">
     <path d="M 236.16 201.36618  L 266.72875 201.36618  Q 268.72875 201.36618 268.72875 199.36618  L 268.72875 190.220867  Q 268.72875 188.220867 266.72875 188.220867  L 236.16 188.220867  Q 234.16 188.220867 234.16 190.220867  L 234.16 199.36618  Q 234.16 201.36618 236.16 201.36618  z " style="fill: #ffffff; stroke: #cccccc; stroke-linejoin: miter" />
    </g>
    
    <g style="fill: #262626" transform="translate(236.16 197.37868) scale(0.1 -0.1)">
     <use ns4:href="#ArialMT-31" />
     <use ns4:href="#ArialMT-2e" transform="translate(55.615234 0)" />
     <use ns4:href="#ArialMT-36" transform="translate(83.398438 0)" />
     <use ns4:href="#ArialMT-33" transform="translate(139.013672 0)" />
     <use ns4:href="#ArialMT-20" transform="translate(194.628906 0)" />
     <use ns4:href="#ArialMT-4d" transform="translate(222.412109 0)" />
    </g>
   </g>
   <g id="_matelot_tooltip_255e3c32__child2_4" visibility="hidden">
    <g id="patch_18">
     <path d="M 290.269091 205.772272  L 320.837841 205.772272  Q 322.837841 205.772272 322.837841 203.772272  L 322.837841 194.62696  Q 322.837841 192.62696 320.837841 192.62696  L 290.269091 192.62696  Q 288.269091 192.62696 288.269091 194.62696  L 288.269091 203.772272  Q 288.269091 205.772272 290.269091 205.772272  z " style="fill: #ffffff; stroke: #cccccc; stroke-linejoin: miter" />
    </g>
    
    <g style="fill: #262626" transform="translate(290.269091 201.784772) scale(0.1 -0.1)">
     <use ns4:href="#ArialMT-31" />
     <use ns4:href="#ArialMT-2e" transform="translate(55.615234 0)" />
     <use ns4:href="#ArialMT-35" transform="translate(83.398438 0)" />
     <use ns4:href="#ArialMT-36" transform="translate(139.013672 0)" />
     <use ns4:href="#ArialMT-20" transform="translate(194.628906 0)" />
     <use ns4:href="#ArialMT-4d" transform="translate(222.412109 0)" />
    </g>
   </g>
   <g id="_matelot_tooltip_255e3c32__child2_5" visibility="hidden">
    <g id="patch_19">
     <path d="M 344.378182 231.786066  L 374.946932 231.786066  Q 376.946932 231.786066 376.946932 229.786066  L 376.946932 220.640753  Q 376.946932 218.640753 374.946932 218.640753  L 344.378182 218.640753  Q 342.378182 218.640753 342.378182 220.640753  L 342.378182 229.786066  Q 342.378182 231.786066 344.378182 231.786066  z " style="fill: #ffffff; stroke: #cccccc; stroke-linejoin: miter" />
    </g>
    
    <g style="fill: #262626" transform="translate(344.378182 227.798566) scale(0.1 -0.1)">
     <use ns4:href="#ArialMT-31" />
     <use ns4:href="#ArialMT-2e" transform="translate(55.615234 0)" />
     <use ns4:href="#ArialMT-31" transform="translate(83.398438 0)" />
     <use ns4:href="#ArialMT-39" transform="translate(139.013672 0)" />
     <use ns4:href="#ArialMT-20" transform="translate(194.628906 0)" />
     <use ns4:href="#ArialMT-4d" transform="translate(222.412109 0)" />
    </g>
   </g>
   <g id="_matelot_tooltip_255e3c32__child2_6" visibility="hidden">
    <g id="patch_20">
     <path d="M 398.487273 288.152434  L 436.84821 288.152434  Q 438.84821 288.152434 438.84821 286.152434  L 438.84821 277.007122  Q 438.84821 275.007122 436.84821 275.007122  L 398.487273 275.007122  Q 396.487273 275.007122 396.487273 277.007122  L 396.487273 286.152434  Q 396.487273 288.152434 398.487273 288.152434  z " style="fill: #ffffff; stroke: #cccccc; stroke-linejoin: miter" />
    </g>
    
    <g style="fill: #262626" transform="translate(398.487273 284.164934) scale(0.1 -0.1)">
     <use ns4:href="#ArialMT-36" />
     <use ns4:href="#ArialMT-36" transform="translate(55.615234 0)" />
     <use ns4:href="#ArialMT-32" transform="translate(111.230469 0)" />
     <use ns4:href="#ArialMT-2e" transform="translate(166.845703 0)" />
     <use ns4:href="#ArialMT-34" transform="translate(194.628906 0)" />
     <use ns4:href="#ArialMT-31" transform="translate(250.244141 0)" />
     <use ns4:href="#ArialMT-20" transform="translate(305.859375 0)" />
     <use ns4:href="#ArialMT-6b" transform="translate(333.642578 0)" />
    </g>
   </g>
   <g id="_matelot_tooltip_255e3c32__child4_0" visibility="hidden">
    <g id="patch_21">
     <path d="M 73.832727 93.468627  L 104.401477 93.468627  Q 106.401477 93.468627 106.401477 91.468627  L 106.401477 82.323315  Q 106.401477 80.323315 104.401477 80.323315  L 73.832727 80.323315  Q 71.832727 80.323315 71.832727 82.323315  L 71.832727 91.468627  Q 71.832727 93.468627 73.832727 93.468627  z " style="fill: #ffffff; stroke: #cccccc; stroke-linejoin: miter" />
    </g>
    
    <g style="fill: #262626" transform="translate(73.832727 89.481127) scale(0.1 -0.1)">
     <use ns4:href="#ArialMT-35" />
     <use ns4:href="#ArialMT-2e" transform="translate(55.615234 0)" />
     <use ns4:href="#ArialMT-30" transform="translate(83.398438 0)" />
     <use ns4:href="#ArialMT-31" transform="translate(139.013672 0)" />
     <use ns4:href="#ArialMT-20" transform="translate(194.628906 0)" />
     <use ns4:href="#ArialMT-4d" transform="translate(222.412109 0)" />
    </g>
   </g>
   <g id="_matelot_tooltip_255e3c32__child4_1" visibility="hidden">
    <g id="patch_22">
     <path d="M 127.941818 108.308066  L 158.510568 108.308066  Q 160.510568 108.308066 160.510568 106.308066  L 160.510568 97.162754  Q 160.510568 95.162754 158.510568 95.162754  L 127.941818 95.162754  Q 125.941818 95.162754 125.941818 97.162754  L 125.941818 106.308066  Q 125.941818 108.308066 127.941818 108.308066  z " style="fill: #ffffff; stroke: #cccccc; stroke-linejoin: miter" />
    </g>
    
    <g style="fill: #262626" transform="translate(127.941818 104.320566) scale(0.1 -0.1)">
     <use ns4:href="#ArialMT-34" />
     <use ns4:href="#ArialMT-2e" transform="translate(55.615234 0)" />
     <use ns4:href="#ArialMT-32" transform="translate(83.398438 0)" />
     <use ns4:href="#ArialMT-39" transform="translate(139.013672 0)" />
     <use ns4:href="#ArialMT-20" transform="translate(194.628906 0)" />
     <use ns4:href="#ArialMT-4d" transform="translate(222.412109 0)" />
    </g>
   </g>
   <g id="_matelot_tooltip_255e3c32__child4_2" visibility="hidden">
    <g id="patch_23">
     <path d="M 182.050909 120.927987  L 212.619659 120.927987  Q 214.619659 120.927987 214.619659 118.927987  L 214.619659 109.782675  Q 214.619659 107.782675 212.619659 107.782675  L 182.050909 107.782675  Q 180.050909 107.782675 180.050909 109.782675  L 180.050909 118.927987  Q 180.050909 120.927987 182.050909 120.927987  z " style="fill: #ffffff; stroke: #cccccc; stroke-linejoin: miter" />
    </g>
    
    <g style="fill: #262626" transform="translate(182.050909 116.940487) scale(0.1 -0.1)">
     <use ns4:href="#ArialMT-33" />
     <use ns4:href="#ArialMT-2e" transform="translate(55.615234 0)" />
     <use ns4:href="#ArialMT-37" transform="translate(83.398438 0)" />
     <use ns4:href="#ArialMT-37" transform="translate(139.013672 0)" />
     <use ns4:href="#ArialMT-20" transform="translate(194.628906 0)" />
     <use ns4:href="#ArialMT-4d" transform="translate(222.412109 0)" />
    </g>
   </g>
   <g id="_matelot_tooltip_255e3c32__child4_3" visibility="hidden">
    <g id="patch_24">
     <path d="M 236.16 128.126198  L 266.72875 128.126198  Q 268.72875 128.126198 268.72875 126.126198  L 268.72875 116.980885  Q 268.72875 114.980885 266.72875 114.980885  L 236.16 114.980885  Q 234.16 114.980885 234.16 116.980885  L 234.16 126.126198  Q 234.16 128.126198 236.16 128.126198  z " style="fill: #ffffff; stroke: #cccccc; stroke-linejoin: miter" />
    </g>
    
    <g style="fill: #262626" transform="translate(236.16 124.138698) scale(0.1 -0.1)">
     <use ns4:href="#ArialMT-33" />
     <use ns4:href="#ArialMT-2e" transform="translate(55.615234 0)" />
     <use ns4:href="#ArialMT-34" transform="translate(83.398438 0)" />
     <use ns4:href="#ArialMT-39" transform="translate(139.013672 0)" />
     <use ns4:href="#ArialMT-20" transform="translate(194.628906 0)" />
     <use ns4:href="#ArialMT-4d" transform="translate(222.412109 0)" />
    </g>
   </g>
   <g id="_matelot_tooltip_255e3c32__child4_4" visibility="hidden">
    <g id="patch_25">
     <path d="M 290.269091 154.414762  L 320.837841 154.414762  Q 322.837841 154.414762 322.837841 152.414762  L 322.837841 143.269449  Q 322.837841 141.269449 320.837841 141.269449  L 290.269091 141.269449  Q 288.269091 141.269449 288.269091 143.269449  L 288.269091 152.414762  Q 288.269091 154.414762 290.269091 154.414762  z " style="fill: #ffffff; stroke: #cccccc; stroke-linejoin: miter" />
    </g>
    
    <g style="fill: #262626" transform="translate(290.269091 150.427262) scale(0.1 -0.1)">
     <use ns4:href="#ArialMT-32" />
     <use ns4:href="#ArialMT-2e" transform="translate(55.615234 0)" />
     <use ns4:href="#ArialMT-36" transform="translate(83.398438 0)" />
     <use ns4:href="#ArialMT-36" transform="translate(139.013672 0)" />
     <use ns4:href="#ArialMT-20" transform="translate(194.628906 0)" />
     <use ns4:href="#ArialMT-4d" transform="translate(222.412109 0)" />
    </g>
   </g>
   <g id="_matelot_tooltip_255e3c32__child4_5" visibility="hidden">
    <g id="patch_26">
     <path d="M 344.378182 204.548463  L 374.946932 204.548463  Q 376.946932 204.548463 376.946932 202.548463  L 376.946932 193.403151  Q 376.946932 191.403151 374.946932 191.403151  L 344.378182 191.403151  Q 342.378182 191.403151 342.378182 193.403151  L 342.378182 202.548463  Q 342.378182 204.548463 344.378182 204.548463  z " style="fill: #ffffff; stroke: #cccccc; stroke-linejoin: miter" />
    </g>
    
    <g style="fill: #262626" transform="translate(344.378182 200.560963) scale(0.1 -0.1)">
     <use ns4:href="#ArialMT-31" />
     <use ns4:href="#ArialMT-2e" transform="translate(55.615234 0)" />
     <use ns4:href="#ArialMT-35" transform="translate(83.398438 0)" />
     <use ns4:href="#ArialMT-38" transform="translate(139.013672 0)" />
     <use ns4:href="#ArialMT-20" transform="translate(194.628906 0)" />
     <use ns4:href="#ArialMT-4d" transform="translate(222.412109 0)" />
    </g>
   </g>
   <g id="_matelot_tooltip_255e3c32__child4_6" visibility="hidden">
    <g id="patch_27">
     <path d="M 398.487273 271.51857  L 436.84821 271.51857  Q 438.84821 271.51857 438.84821 269.51857  L 438.84821 260.373258  Q 438.84821 258.373258 436.84821 258.373258  L 398.487273 258.373258  Q 396.487273 258.373258 396.487273 260.373258  L 396.487273 269.51857  Q 396.487273 271.51857 398.487273 271.51857  z " style="fill: #ffffff; stroke: #cccccc; stroke-linejoin: miter" />
    </g>
    
    <g style="fill: #262626" transform="translate(398.487273 267.53107) scale(0.1 -0.1)">
     <use ns4:href="#ArialMT-37" />
     <use ns4:href="#ArialMT-38" transform="translate(55.615234 0)" />
     <use ns4:href="#ArialMT-37" transform="translate(111.230469 0)" />
     <use ns4:href="#ArialMT-2e" transform="translate(166.845703 0)" />
     <use ns4:href="#ArialMT-34" transform="translate(194.628906 0)" />
     <use ns4:href="#ArialMT-30" transform="translate(250.244141 0)" />
     <use ns4:href="#ArialMT-20" transform="translate(305.859375 0)" />
     <use ns4:href="#ArialMT-6b" transform="translate(333.642578 0)" />
    </g>
   </g>
   <g id="_matelot_tooltip_255e3c32__child6_0" visibility="hidden">
    <g id="patch_28">
     <path d="M 73.832727 99.997437  L 104.401477 99.997437  Q 106.401477 99.997437 106.401477 97.997437  L 106.401477 88.852125  Q 106.401477 86.852125 104.401477 86.852125  L 73.832727 86.852125  Q 71.832727 86.852125 71.832727 88.852125  L 71.832727 97.997437  Q 71.832727 99.997437 73.832727 99.997437  z " style="fill: #ffffff; stroke: #cccccc; stroke-linejoin: miter" />
    </g>
    
    <g style="fill: #262626" transform="translate(73.832727 96.009937) scale(0.1 -0.1)">
     <use ns4:href="#ArialMT-34" />
     <use ns4:href="#ArialMT-2e" transform="translate(55.615234 0)" />
     <use ns4:href="#ArialMT-36" transform="translate(83.398438 0)" />
     <use ns4:href="#ArialMT-38" transform="translate(139.013672 0)" />
     <use ns4:href="#ArialMT-20" transform="translate(194.628906 0)" />
     <use ns4:href="#ArialMT-4d" transform="translate(222.412109 0)" />
    </g>
   </g>
   <g id="_matelot_tooltip_255e3c32__child6_1" visibility="hidden">
    <g id="patch_29">
     <path d="M 127.941818 116.624544  L 158.510568 116.624544  Q 160.510568 116.624544 160.510568 114.624544  L 160.510568 105.479232  Q 160.510568 103.479232 158.510568 103.479232  L 127.941818 103.479232  Q 125.941818 103.479232 125.941818 105.479232  L 125.941818 114.624544  Q 125.941818 116.624544 127.941818 116.624544  z " style="fill: #ffffff; stroke: #cccccc; stroke-linejoin: miter" />
    </g>
    
    <g style="fill: #262626" transform="translate(127.941818 112.637044) scale(0.1 -0.1)">
     <use ns4:href="#ArialMT-33" />
     <use ns4:href="#ArialMT-2e" transform="translate(55.615234 0)" />
     <use ns4:href="#ArialMT-39" transform="translate(83.398438 0)" />
     <use ns4:href="#ArialMT-34" transform="translate(139.013672 0)" />
     <use ns4:href="#ArialMT-20" transform="translate(194.628906 0)" />
     <use ns4:href="#ArialMT-4d" transform="translate(222.412109 0)" />
    </g>
   </g>
   <g id="_matelot_tooltip_255e3c32__child6_2" visibility="hidden">
    <g id="patch_30">
     <path d="M 182.050909 127.074462  L 212.619659 127.074462  Q 214.619659 127.074462 214.619659 125.074462  L 214.619659 115.929149  Q 214.619659 113.929149 212.619659 113.929149  L 182.050909 113.929149  Q 180.050909 113.929149 180.050909 115.929149  L 180.050909 125.074462  Q 180.050909 127.074462 182.050909 127.074462  z " style="fill: #ffffff; stroke: #cccccc; stroke-linejoin: miter" />
    </g>
    
    <g style="fill: #262626" transform="translate(182.050909 123.086962) scale(0.1 -0.1)">
     <use ns4:href="#ArialMT-33" />
     <use ns4:href="#ArialMT-2e" transform="translate(55.615234 0)" />
     <use ns4:href="#ArialMT-35" transform="translate(83.398438 0)" />
     <use ns4:href="#ArialMT-33" transform="translate(139.013672 0)" />
     <use ns4:href="#ArialMT-20" transform="translate(194.628906 0)" />
     <use ns4:href="#ArialMT-4d" transform="translate(222.412109 0)" />
    </g>
   </g>
   <g id="_matelot_tooltip_255e3c32__child6_3" visibility="hidden">
    <g id="patch_31">
     <path d="M 236.16 135.545721  L 266.72875 135.545721  Q 268.72875 135.545721 268.72875 133.545721  L 268.72875 124.400409  Q 268.72875 122.400409 266.72875 122.400409  L 236.16 122.400409  Q 234.16 122.400409 234.16 124.400409  L 234.16 133.545721  Q 234.16 135.545721 236.16 135.545721  z " style="fill: #ffffff; stroke: #cccccc; stroke-linejoin: miter" />
    </g>
    
    <g style="fill: #262626" transform="translate(236.16 131.558221) scale(0.1 -0.1)">
     <use ns4:href="#ArialMT-33" />
     <use ns4:href="#ArialMT-2e" transform="translate(55.615234 0)" />
     <use ns4:href="#ArialMT-32" transform="translate(83.398438 0)" />
     <use ns4:href="#ArialMT-33" transform="translate(139.013672 0)" />
     <use ns4:href="#ArialMT-20" transform="translate(194.628906 0)" />
     <use ns4:href="#ArialMT-4d" transform="translate(222.412109 0)" />
    </g>
   </g>
   <g id="_matelot_tooltip_255e3c32__child6_4" visibility="hidden">
    <g id="patch_32">
     <path d="M 290.269091 162.291764  L 320.837841 162.291764  Q 322.837841 162.291764 322.837841 160.291764  L 322.837841 151.146451  Q 322.837841 149.146451 320.837841 149.146451  L 290.269091 149.146451  Q 288.269091 149.146451 288.269091 151.146451  L 288.269091 160.291764  Q 288.269091 162.291764 290.269091 162.291764  z " style="fill: #ffffff; stroke: #cccccc; stroke-linejoin: miter" />
    </g>
    
    <g style="fill: #262626" transform="translate(290.269091 158.304264) scale(0.1 -0.1)">
     <use ns4:href="#ArialMT-32" />
     <use ns4:href="#ArialMT-2e" transform="translate(55.615234 0)" />
     <use ns4:href="#ArialMT-34" transform="translate(83.398438 0)" />
     <use ns4:href="#ArialMT-35" transform="translate(139.013672 0)" />
     <use ns4:href="#ArialMT-20" transform="translate(194.628906 0)" />
     <use ns4:href="#ArialMT-4d" transform="translate(222.412109 0)" />
    </g>
   </g>
   <g id="_matelot_tooltip_255e3c32__child6_5" visibility="hidden">
    <g id="patch_33">
     <path d="M 344.378182 211.640485  L 374.946932 211.640485  Q 376.946932 211.640485 376.946932 209.640485  L 376.946932 200.495172  Q 376.946932 198.495172 374.946932 198.495172  L 344.378182 198.495172  Q 342.378182 198.495172 342.378182 200.495172  L 342.378182 209.640485  Q 342.378182 211.640485 344.378182 211.640485  z " style="fill: #ffffff; stroke: #cccccc; stroke-linejoin: miter" />
    </g>
    
    <g style="fill: #262626" transform="translate(344.378182 207.652985) scale(0.1 -0.1)">
     <use ns4:href="#ArialMT-31" />
     <use ns4:href="#ArialMT-2e" transform="translate(55.615234 0)" />
     <use ns4:href="#ArialMT-34" transform="translate(83.398438 0)" />
     <use ns4:href="#ArialMT-37" transform="translate(139.013672 0)" />
     <use ns4:href="#ArialMT-20" transform="translate(194.628906 0)" />
     <use ns4:href="#ArialMT-4d" transform="translate(222.412109 0)" />
    </g>
   </g>
   <g id="_matelot_tooltip_255e3c32__child6_6" visibility="hidden">
    <g id="patch_34">
     <path d="M 398.487273 279.324173  L 436.84821 279.324173  Q 438.84821 279.324173 438.84821 277.324173  L 438.84821 268.17886  Q 438.84821 266.17886 436.84821 266.17886  L 398.487273 266.17886  Q 396.487273 266.17886 396.487273 268.17886  L 396.487273 277.324173  Q 396.487273 279.324173 398.487273 279.324173  z " style="fill: #ffffff; stroke: #cccccc; stroke-linejoin: miter" />
    </g>
    
    <g style="fill: #262626" transform="translate(398.487273 275.336673) scale(0.1 -0.1)">
     <use ns4:href="#ArialMT-37" />
     <use ns4:href="#ArialMT-32" transform="translate(55.615234 0)" />
     <use ns4:href="#ArialMT-36" transform="translate(111.230469 0)" />
     <use ns4:href="#ArialMT-2e" transform="translate(166.845703 0)" />
     <use ns4:href="#ArialMT-30" transform="translate(194.628906 0)" />
     <use ns4:href="#ArialMT-35" transform="translate(250.244141 0)" />
     <use ns4:href="#ArialMT-20" transform="translate(305.859375 0)" />
     <use ns4:href="#ArialMT-6b" transform="translate(333.642578 0)" />
    </g>
   </g>
   <g id="_matelot_tooltip_255e3c32__child8_0" visibility="hidden">
    <g id="patch_35">
     <path d="M 73.832727 48.542004  L 104.401477 48.542004  Q 106.401477 48.542004 106.401477 46.542004  L 106.401477 37.396691  Q 106.401477 35.396691 104.401477 35.396691  L 73.832727 35.396691  Q 71.832727 35.396691 71.832727 37.396691  L 71.832727 46.542004  Q 71.832727 48.542004 73.832727 48.542004  z " style="fill: #ffffff; stroke: #cccccc; stroke-linejoin: miter" />
    </g>
    
    <g style="fill: #262626" transform="translate(73.832727 44.554504) scale(0.1 -0.1)">
     <use ns4:href="#ArialMT-37" />
     <use ns4:href="#ArialMT-2e" transform="translate(55.615234 0)" />
     <use ns4:href="#ArialMT-39" transform="translate(83.398438 0)" />
     <use ns4:href="#ArialMT-39" transform="translate(139.013672 0)" />
     <use ns4:href="#ArialMT-20" transform="translate(194.628906 0)" />
     <use ns4:href="#ArialMT-4d" transform="translate(222.412109 0)" />
    </g>
   </g>
   <g id="_matelot_tooltip_255e3c32__child8_1" visibility="hidden">
    <g id="patch_36">
     <path d="M 127.941818 61.402666  L 158.510568 61.402666  Q 160.510568 61.402666 160.510568 59.402666  L 160.510568 50.257354  Q 160.510568 48.257354 158.510568 48.257354  L 127.941818 48.257354  Q 125.941818 48.257354 125.941818 50.257354  L 125.941818 59.402666  Q 125.941818 61.402666 127.941818 61.402666  z " style="fill: #ffffff; stroke: #cccccc; stroke-linejoin: miter" />
    </g>
    
    <g style="fill: #262626" transform="translate(127.941818 57.415166) scale(0.1 -0.1)">
     <use ns4:href="#ArialMT-36" />
     <use ns4:href="#ArialMT-2e" transform="translate(55.615234 0)" />
     <use ns4:href="#ArialMT-39" transform="translate(83.398438 0)" />
     <use ns4:href="#ArialMT-39" transform="translate(139.013672 0)" />
     <use ns4:href="#ArialMT-20" transform="translate(194.628906 0)" />
     <use ns4:href="#ArialMT-4d" transform="translate(222.412109 0)" />
    </g>
   </g>
   <g id="_matelot_tooltip_255e3c32__child8_2" visibility="hidden">
    <g id="patch_37">
     <path d="M 182.050909 69.25931  L 212.619659 69.25931  Q 214.619659 69.25931 214.619659 67.25931  L 214.619659 58.113997  Q 214.619659 56.113997 212.619659 56.113997  L 182.050909 56.113997  Q 180.050909 56.113997 180.050909 58.113997  L 180.050909 67.25931  Q 180.050909 69.25931 182.050909 69.25931  z " style="fill: #ffffff; stroke: #cccccc; stroke-linejoin: miter" />
    </g>
    
    <g style="fill: #262626" transform="translate(182.050909 65.27181) scale(0.1 -0.1)">
     <use ns4:href="#ArialMT-36" />
     <use ns4:href="#ArialMT-2e" transform="translate(55.615234 0)" />
     <use ns4:href="#ArialMT-34" transform="translate(83.398438 0)" />
     <use ns4:href="#ArialMT-34" transform="translate(139.013672 0)" />
     <use ns4:href="#ArialMT-20" transform="translate(194.628906 0)" />
     <use ns4:href="#ArialMT-4d" transform="translate(222.412109 0)" />
    </g>
   </g>
   <g id="_matelot_tooltip_255e3c32__child8_3" visibility="hidden">
    <g id="patch_38">
     <path d="M 236.16 89.674182  L 266.72875 89.674182  Q 268.72875 89.674182 268.72875 87.674182  L 268.72875 78.52887  Q 268.72875 76.52887 266.72875 76.52887  L 236.16 76.52887  Q 234.16 76.52887 234.16 78.52887  L 234.16 87.674182  Q 234.16 89.674182 236.16 89.674182  z " style="fill: #ffffff; stroke: #cccccc; stroke-linejoin: miter" />
    </g>
    
    <g style="fill: #262626" transform="translate(236.16 85.686682) scale(0.1 -0.1)">
     <use ns4:href="#ArialMT-35" />
     <use ns4:href="#ArialMT-2e" transform="translate(55.615234 0)" />
     <use ns4:href="#ArialMT-32" transform="translate(83.398438 0)" />
     <use ns4:href="#ArialMT-31" transform="translate(139.013672 0)" />
     <use ns4:href="#ArialMT-20" transform="translate(194.628906 0)" />
     <use ns4:href="#ArialMT-4d" transform="translate(222.412109 0)" />
    </g>
   </g>
   <g id="_matelot_tooltip_255e3c32__child8_4" visibility="hidden">
    <g id="patch_39">
     <path d="M 290.269091 128.176015  L 320.837841 128.176015  Q 322.837841 128.176015 322.837841 126.176015  L 322.837841 117.030702  Q 322.837841 115.030702 320.837841 115.030702  L 290.269091 115.030702  Q 288.269091 115.030702 288.269091 117.030702  L 288.269091 126.176015  Q 288.269091 128.176015 290.269091 128.176015  z " style="fill: #ffffff; stroke: #cccccc; stroke-linejoin: miter" />
    </g>
    
    <g style="fill: #262626" transform="translate(290.269091 124.188515) scale(0.1 -0.1)">
     <use ns4:href="#ArialMT-33" />
     <use ns4:href="#ArialMT-2e" transform="translate(55.615234 0)" />
     <use ns4:href="#ArialMT-34" transform="translate(83.398438 0)" />
     <use ns4:href="#ArialMT-39" transform="translate(139.013672 0)" />
     <use ns4:href="#ArialMT-20" transform="translate(194.628906 0)" />
     <use ns4:href="#ArialMT-4d" transform="translate(222.412109 0)" />
    </g>
   </g>
   <g id="_matelot_tooltip_255e3c32__child8_5" visibility="hidden">
    <g id="patch_40">
     <path d="M 344.378182 202.785814  L 374.946932 202.785814  Q 376.946932 202.785814 376.946932 200.785814  L 376.946932 191.640501  Q 376.946932 189.640501 374.946932 189.640501  L 344.378182 189.640501  Q 342.378182 189.640501 342.378182 191.640501  L 342.378182 200.785814  Q 342.378182 202.785814 344.378182 202.785814  z " style="fill: #ffffff; stroke: #cccccc; stroke-linejoin: miter" />
    </g>
    
    <g style="fill: #262626" transform="translate(344.378182 198.798314) scale(0.1 -0.1)">
     <use ns4:href="#ArialMT-31" />
     <use ns4:href="#ArialMT-2e" transform="translate(55.615234 0)" />
     <use ns4:href="#ArialMT-36" transform="translate(83.398438 0)" />
     <use ns4:href="#ArialMT-31" transform="translate(139.013672 0)" />
     <use ns4:href="#ArialMT-20" transform="translate(194.628906 0)" />
     <use ns4:href="#ArialMT-4d" transform="translate(222.412109 0)" />
    </g>
   </g>
   <g id="_matelot_tooltip_255e3c32__child8_6" visibility="hidden">
    <g id="patch_41">
     <path d="M 398.487273 271.694728  L 436.84821 271.694728  Q 438.84821 271.694728 438.84821 269.694728  L 438.84821 260.549416  Q 438.84821 258.549416 436.84821 258.549416  L 398.487273 258.549416  Q 396.487273 258.549416 396.487273 260.549416  L 396.487273 269.694728  Q 396.487273 271.694728 398.487273 271.694728  z " style="fill: #ffffff; stroke: #cccccc; stroke-linejoin: miter" />
    </g>
    
    <g style="fill: #262626" transform="translate(398.487273 267.707228) scale(0.1 -0.1)">
     <use ns4:href="#ArialMT-37" />
     <use ns4:href="#ArialMT-38" transform="translate(55.615234 0)" />
     <use ns4:href="#ArialMT-35" transform="translate(111.230469 0)" />
     <use ns4:href="#ArialMT-2e" transform="translate(166.845703 0)" />
     <use ns4:href="#ArialMT-39" transform="translate(194.628906 0)" />
     <use ns4:href="#ArialMT-36" transform="translate(250.244141 0)" />
     <use ns4:href="#ArialMT-20" transform="translate(305.859375 0)" />
     <use ns4:href="#ArialMT-6b" transform="translate(333.642578 0)" />
    </g>
   </g>
   <g id="_matelot_tooltip_255e3c32__child10_0" visibility="hidden">
    <g id="patch_42">
     <path d="M 73.832727 55.280999  L 104.401477 55.280999  Q 106.401477 55.280999 106.401477 53.280999  L 106.401477 44.135686  Q 106.401477 42.135686 104.401477 42.135686  L 73.832727 42.135686  Q 71.832727 42.135686 71.832727 44.135686  L 71.832727 53.280999  Q 71.832727 55.280999 73.832727 55.280999  z " style="fill: #ffffff; stroke: #cccccc; stroke-linejoin: miter" />
    </g>
    
    <g style="fill: #262626" transform="translate(73.832727 51.293499) scale(0.1 -0.1)">
     <use ns4:href="#ArialMT-37" />
     <use ns4:href="#ArialMT-2e" transform="translate(55.615234 0)" />
     <use ns4:href="#ArialMT-34" transform="translate(83.398438 0)" />
     <use ns4:href="#ArialMT-35" transform="translate(139.013672 0)" />
     <use ns4:href="#ArialMT-20" transform="translate(194.628906 0)" />
     <use ns4:href="#ArialMT-4d" transform="translate(222.412109 0)" />
    </g>
   </g>
   <g id="_matelot_tooltip_255e3c32__child10_1" visibility="hidden">
    <g id="patch_43">
     <path d="M 127.941818 68.231611  L 158.510568 68.231611  Q 160.510568 68.231611 160.510568 66.231611  L 160.510568 57.086299  Q 160.510568 55.086299 158.510568 55.086299  L 127.941818 55.086299  Q 125.941818 55.086299 125.941818 57.086299  L 125.941818 66.231611  Q 125.941818 68.231611 127.941818 68.231611  z " style="fill: #ffffff; stroke: #cccccc; stroke-linejoin: miter" />
    </g>
    
    <g style="fill: #262626" transform="translate(127.941818 64.244111) scale(0.1 -0.1)">
     <use ns4:href="#ArialMT-36" />
     <use ns4:href="#ArialMT-2e" transform="translate(55.615234 0)" />
     <use ns4:href="#ArialMT-35" transform="translate(83.398438 0)" />
     <use ns4:href="#ArialMT-31" transform="translate(139.013672 0)" />
     <use ns4:href="#ArialMT-20" transform="translate(194.628906 0)" />
     <use ns4:href="#ArialMT-4d" transform="translate(222.412109 0)" />
    </g>
   </g>
   <g id="_matelot_tooltip_255e3c32__child10_2" visibility="hidden">
    <g id="patch_44">
     <path d="M 182.050909 77.041285  L 212.619659 77.041285  Q 214.619659 77.041285 214.619659 75.041285  L 214.619659 65.895973  Q 214.619659 63.895973 212.619659 63.895973  L 182.050909 63.895973  Q 180.050909 63.895973 180.050909 65.895973  L 180.050909 75.041285  Q 180.050909 77.041285 182.050909 77.041285  z " style="fill: #ffffff; stroke: #cccccc; stroke-linejoin: miter" />
    </g>
    
    <g style="fill: #262626" transform="translate(182.050909 73.053785) scale(0.1 -0.1)">
     <use ns4:href="#ArialMT-35" />
     <use ns4:href="#ArialMT-2e" transform="translate(55.615234 0)" />
     <use ns4:href="#ArialMT-39" transform="translate(83.398438 0)" />
     <use ns4:href="#ArialMT-34" transform="translate(139.013672 0)" />
     <use ns4:href="#ArialMT-20" transform="translate(194.628906 0)" />
     <use ns4:href="#ArialMT-4d" transform="translate(222.412109 0)" />
    </g>
   </g>
   <g id="_matelot_tooltip_255e3c32__child10_3" visibility="hidden">
    <g id="patch_45">
     <path d="M 236.16 98.111079  L 266.72875 98.111079  Q 268.72875 98.111079 268.72875 96.111079  L 268.72875 86.965767  Q 268.72875 84.965767 266.72875 84.965767  L 236.16 84.965767  Q 234.16 84.965767 234.16 86.965767  L 234.16 96.111079  Q 234.16 98.111079 236.16 98.111079  z " style="fill: #ffffff; stroke: #cccccc; stroke-linejoin: miter" />
    </g>
    
    <g style="fill: #262626" transform="translate(236.16 94.123579) scale(0.1 -0.1)">
     <use ns4:href="#ArialMT-34" />
     <use ns4:href="#ArialMT-2e" transform="translate(55.615234 0)" />
     <use ns4:href="#ArialMT-37" transform="translate(83.398438 0)" />
     <use ns4:href="#ArialMT-37" transform="translate(139.013672 0)" />
     <use ns4:href="#ArialMT-20" transform="translate(194.628906 0)" />
     <use ns4:href="#ArialMT-4d" transform="translate(222.412109 0)" />
    </g>
   </g>
   <g id="_matelot_tooltip_255e3c32__child10_4" visibility="hidden">
    <g id="patch_46">
     <path d="M 290.269091 136.024075  L 320.837841 136.024075  Q 322.837841 136.024075 322.837841 134.024075  L 322.837841 124.878763  Q 322.837841 122.878763 320.837841 122.878763  L 290.269091 122.878763  Q 288.269091 122.878763 288.269091 124.878763  L 288.269091 134.024075  Q 288.269091 136.024075 290.269091 136.024075  z " style="fill: #ffffff; stroke: #cccccc; stroke-linejoin: miter" />
    </g>
    
    <g style="fill: #262626" transform="translate(290.269091 132.036575) scale(0.1 -0.1)">
     <use ns4:href="#ArialMT-33" />
     <use ns4:href="#ArialMT-2e" transform="translate(55.615234 0)" />
     <use ns4:href="#ArialMT-32" transform="translate(83.398438 0)" />
     <use ns4:href="#ArialMT-32" transform="translate(139.013672 0)" />
     <use ns4:href="#ArialMT-20" transform="translate(194.628906 0)" />
     <use ns4:href="#ArialMT-4d" transform="translate(222.412109 0)" />
    </g>
   </g>
   <g id="_matelot_tooltip_255e3c32__child10_5" visibility="hidden">
    <g id="patch_47">
     <path d="M 344.378182 209.517858  L 374.946932 209.517858  Q 376.946932 209.517858 376.946932 207.517858  L 376.946932 198.372545  Q 376.946932 196.372545 374.946932 196.372545  L 344.378182 196.372545  Q 342.378182 196.372545 342.378182 198.372545  L 342.378182 207.517858  Q 342.378182 209.517858 344.378182 209.517858  z " style="fill: #ffffff; stroke: #cccccc; stroke-linejoin: miter" />
    </g>
    
    <g style="fill: #262626" transform="translate(344.378182 205.530358) scale(0.1 -0.1)">
     <use ns4:href="#ArialMT-31" />
     <use ns4:href="#ArialMT-2e" transform="translate(55.615234 0)" />
     <use ns4:href="#ArialMT-35" transform="translate(83.398438 0)" />
     <use ns4:href="#ArialMT-30" transform="translate(139.013672 0)" />
     <use ns4:href="#ArialMT-20" transform="translate(194.628906 0)" />
     <use ns4:href="#ArialMT-4d" transform="translate(222.412109 0)" />
    </g>
   </g>
   <g id="_matelot_tooltip_255e3c32__child10_6" visibility="hidden">
    <g id="patch_48">
     <path d="M 398.487273 279.810144  L 436.84821 279.810144  Q 438.84821 279.810144 438.84821 277.810144  L 438.84821 268.664831  Q 438.84821 266.664831 436.84821 266.664831  L 398.487273 266.664831  Q 396.487273 266.664831 396.487273 268.664831  L 396.487273 277.810144  Q 396.487273 279.810144 398.487273 279.810144  z " style="fill: #ffffff; stroke: #cccccc; stroke-linejoin: miter" />
    </g>
    
    <g style="fill: #262626" transform="translate(398.487273 275.822644) scale(0.1 -0.1)">
     <use ns4:href="#ArialMT-37" />
     <use ns4:href="#ArialMT-32" transform="translate(55.615234 0)" />
     <use ns4:href="#ArialMT-32" transform="translate(111.230469 0)" />
     <use ns4:href="#ArialMT-2e" transform="translate(166.845703 0)" />
     <use ns4:href="#ArialMT-33" transform="translate(194.628906 0)" />
     <use ns4:href="#ArialMT-39" transform="translate(250.244141 0)" />
     <use ns4:href="#ArialMT-20" transform="translate(305.859375 0)" />
     <use ns4:href="#ArialMT-6b" transform="translate(333.642578 0)" />
    </g>
   </g>
   <g id="text_11">
    
    <g style="fill: #262626" transform="translate(183.810937 35.472) scale(0.12 -0.12)">
     <defs>
      <path id="ArialMT-54" d="M 1659 0  L 1659 4041  L 150 4041  L 150 4581  L 3781 4581  L 3781 4041  L 2266 4041  L 2266 0  L 1659 0  z " transform="scale(0.015625)" />
      <path id="ArialMT-68" d="M 422 0  L 422 4581  L 984 4581  L 984 2938  Q 1378 3394 1978 3394  Q 2347 3394 2619 3248  Q 2891 3103 3008 2847  Q 3125 2591 3125 2103  L 3125 0  L 2563 0  L 2563 2103  Q 2563 2525 2380 2717  Q 2197 2909 1863 2909  Q 1613 2909 1392 2779  Q 1172 2650 1078 2428  Q 984 2206 984 1816  L 984 0  L 422 0  z " transform="scale(0.015625)" />
      <path id="ArialMT-72" d="M 416 0  L 416 3319  L 922 3319  L 922 2816  Q 1116 3169 1280 3281  Q 1444 3394 1641 3394  Q 1925 3394 2219 3213  L 2025 2691  Q 1819 2813 1613 2813  Q 1428 2813 1281 2702  Q 1134 2591 1072 2394  Q 978 2094 978 1738  L 978 0  L 416 0  z " transform="scale(0.015625)" />
      <path id="ArialMT-75" d="M 2597 0  L 2597 488  Q 2209 -75 1544 -75  Q 1250 -75 995 37  Q 741 150 617 320  Q 494 491 444 738  Q 409 903 409 1263  L 409 3319  L 972 3319  L 972 1478  Q 972 1038 1006 884  Q 1059 663 1231 536  Q 1403 409 1656 409  Q 1909 409 2131 539  Q 2353 669 2445 892  Q 2538 1116 2538 1541  L 2538 3319  L 3100 3319  L 3100 0  L 2597 0  z " transform="scale(0.015625)" />
     </defs>
     <use ns4:href="#ArialMT-54" />
     <use ns4:href="#ArialMT-68" transform="translate(61.083984 0)" />
     <use ns4:href="#ArialMT-72" transform="translate(116.699219 0)" />
     <use ns4:href="#ArialMT-6f" transform="translate(150 0)" />
     <use ns4:href="#ArialMT-75" transform="translate(205.615234 0)" />
     <use ns4:href="#ArialMT-67" transform="translate(261.230469 0)" />
     <use ns4:href="#ArialMT-68" transform="translate(316.845703 0)" />
     <use ns4:href="#ArialMT-70" transform="translate(372.460938 0)" />
     <use ns4:href="#ArialMT-75" transform="translate(428.076172 0)" />
     <use ns4:href="#ArialMT-74" transform="translate(483.691406 0)" />
     <use ns4:href="#ArialMT-20" transform="translate(511.474609 0)" />
     <use ns4:href="#ArialMT-28" transform="translate(539.257812 0)" />
     <use ns4:href="#ArialMT-6d" transform="translate(572.558594 0)" />
     <use ns4:href="#ArialMT-73" transform="translate(655.859375 0)" />
     <use ns4:href="#ArialMT-67" transform="translate(705.859375 0)" />
     <use ns4:href="#ArialMT-2f" transform="translate(761.474609 0)" />
     <use ns4:href="#ArialMT-73" transform="translate(789.257812 0)" />
     <use ns4:href="#ArialMT-29" transform="translate(839.257812 0)" />
    </g>
   </g>
   <g id="legend_1">
    <g id="patch_49">
     <path d="M 64.6 302.584  L 137.734375 302.584  Q 139.734375 302.584 139.734375 300.584  L 139.734375 202.298062  Q 139.734375 200.298062 137.734375 200.298062  L 64.6 200.298062  Q 62.6 200.298062 62.6 202.298062  L 62.6 300.584  Q 62.6 302.584 64.6 302.584  z " style="fill: #ffffff; opacity: 0.8; stroke: #cccccc; stroke-linejoin: miter" />
    </g>
    <g id="text_12">
     
     <g style="fill: #262626" transform="translate(70.046094 211.57775) scale(0.1 -0.1)">
      <use ns4:href="#ArialMT-6d" />
      <use ns4:href="#ArialMT-65" transform="translate(83.300781 0)" />
      <use ns4:href="#ArialMT-64" transform="translate(138.916016 0)" />
      <use ns4:href="#ArialMT-69" transform="translate(194.53125 0)" />
      <use ns4:href="#ArialMT-61" transform="translate(216.748047 0)" />
      <use ns4:href="#ArialMT-6e" transform="translate(272.363281 0)" />
      <use ns4:href="#ArialMT-20" transform="translate(327.978516 0)" />
      <use ns4:href="#ArialMT-6d" transform="translate(355.761719 0)" />
      <use ns4:href="#ArialMT-73" transform="translate(439.0625 0)" />
      <use ns4:href="#ArialMT-67" transform="translate(489.0625 0)" />
      <use ns4:href="#ArialMT-2f" transform="translate(544.677734 0)" />
      <use ns4:href="#ArialMT-73" transform="translate(572.460938 0)" />
     </g>
    </g>
    <g id="line2d_27">
     <path d="M 66.6 222.369937  L 76.6 222.369937  L 86.6 222.369937  " style="fill: none; stroke: #da6600; stroke-width: 1.5; stroke-linecap: round" />
     <g>
      <use ns4:href="#m0448a291f6" x="76.6" y="222.369937" style="fill: #da6600; stroke: #ffffff; stroke-width: 0.75" />
     </g>
    </g>
    <g id="text_13">
     
     <g style="fill: #262626" transform="translate(94.6 225.869937) scale(0.1 -0.1)">
      <use ns4:href="#ArialMT-31" />
      <use ns4:href="#ArialMT-2e" transform="translate(55.615234 0)" />
      <use ns4:href="#ArialMT-30" transform="translate(83.398438 0)" />
      <use ns4:href="#ArialMT-20" transform="translate(139.013672 0)" />
      <use ns4:href="#ArialMT-70" transform="translate(166.796875 0)" />
      <use ns4:href="#ArialMT-75" transform="translate(222.412109 0)" />
      <use ns4:href="#ArialMT-62" transform="translate(278.027344 0)" />
     </g>
    </g>
    <g id="line2d_28">
     <path d="M 66.6 236.51525  L 76.6 236.51525  L 86.6 236.51525  " style="fill: none; stroke: #ff7f0e; stroke-width: 1.5; stroke-linecap: round" />
     <g>
      <use ns4:href="#mdf20ad521a" x="76.6" y="236.51525" style="fill: #ff7f0e; stroke: #ffffff; stroke-width: 0.75" />
     </g>
    </g>
    <g id="text_14">
     
     <g style="fill: #262626" transform="translate(94.6 240.01525) scale(0.1 -0.1)">
      <use ns4:href="#ArialMT-31" />
      <use ns4:href="#ArialMT-2e" transform="translate(55.615234 0)" />
      <use ns4:href="#ArialMT-30" transform="translate(83.398438 0)" />
      <use ns4:href="#ArialMT-20" transform="translate(139.013672 0)" />
      <use ns4:href="#ArialMT-73" transform="translate(166.796875 0)" />
      <use ns4:href="#ArialMT-75" transform="translate(216.796875 0)" />
      <use ns4:href="#ArialMT-62" transform="translate(272.412109 0)" />
     </g>
    </g>
    <g id="line2d_29">
     <path d="M 66.6 250.660562  L 76.6 250.660562  L 86.6 250.660562  " style="fill: none; stroke: #217821; stroke-width: 1.5; stroke-linecap: round" />
     <g>
      <use ns4:href="#mb1d50f5754" x="76.6" y="250.660562" style="fill: #217821; stroke: #ffffff; stroke-width: 0.75" />
     </g>
    </g>
    <g id="text_15">
     
     <g style="fill: #262626" transform="translate(94.6 254.160562) scale(0.1 -0.1)">
      <use ns4:href="#ArialMT-6d" />
      <use ns4:href="#ArialMT-61" transform="translate(83.300781 0)" />
      <use ns4:href="#ArialMT-69" transform="translate(138.916016 0)" />
      <use ns4:href="#ArialMT-6e" transform="translate(161.132812 0)" />
      <use ns4:href="#ArialMT-20" transform="translate(216.748047 0)" />
      <use ns4:href="#ArialMT-70" transform="translate(244.53125 0)" />
      <use ns4:href="#ArialMT-75" transform="translate(300.146484 0)" />
      <use ns4:href="#ArialMT-62" transform="translate(355.761719 0)" />
     </g>
    </g>
    <g id="line2d_30">
     <path d="M 66.6 264.805875  L 76.6 264.805875  L 86.6 264.805875  " style="fill: none; stroke: #2ca02c; stroke-width: 1.5; stroke-linecap: round" />
     <g>
      <use ns4:href="#m67fae52cc2" x="76.6" y="264.805875" style="fill: #2ca02c; stroke: #ffffff; stroke-width: 0.75" />
     </g>
    </g>
    <g id="text_16">
     
     <g style="fill: #262626" transform="translate(94.6 268.305875) scale(0.1 -0.1)">
      <use ns4:href="#ArialMT-6d" />
      <use ns4:href="#ArialMT-61" transform="translate(83.300781 0)" />
      <use ns4:href="#ArialMT-69" transform="translate(138.916016 0)" />
      <use ns4:href="#ArialMT-6e" transform="translate(161.132812 0)" />
      <use ns4:href="#ArialMT-20" transform="translate(216.748047 0)" />
      <use ns4:href="#ArialMT-73" transform="translate(244.53125 0)" />
      <use ns4:href="#ArialMT-75" transform="translate(294.53125 0)" />
      <use ns4:href="#ArialMT-62" transform="translate(350.146484 0)" />
     </g>
    </g>
    <g id="line2d_31">
     <path d="M 66.6 278.951187  L 76.6 278.951187  L 86.6 278.951187  " style="fill: none; stroke: #185a88; stroke-width: 1.5; stroke-linecap: round" />
     <g>
      <use ns4:href="#mce29a1a651" x="76.6" y="278.951187" style="fill: #185a88; stroke: #ffffff; stroke-width: 0.75" />
     </g>
    </g>
    <g id="text_17">
     
     <g style="fill: #262626" transform="translate(94.6 282.451187) scale(0.1 -0.1)">
      <defs>
       <path id="ArialMT-76" d="M 1344 0  L 81 3319  L 675 3319  L 1388 1331  Q 1503 1009 1600 663  Q 1675 925 1809 1294  L 2547 3319  L 3125 3319  L 1869 0  L 1344 0  z " transform="scale(0.015625)" />
      </defs>
      <use ns4:href="#ArialMT-64" />
      <use ns4:href="#ArialMT-65" transform="translate(55.615234 0)" />
      <use ns4:href="#ArialMT-76" transform="translate(111.230469 0)" />
      <use ns4:href="#ArialMT-20" transform="translate(161.230469 0)" />
      <use ns4:href="#ArialMT-70" transform="translate(189.013672 0)" />
      <use ns4:href="#ArialMT-75" transform="translate(244.628906 0)" />
      <use ns4:href="#ArialMT-62" transform="translate(300.244141 0)" />
     </g>
    </g>
    <g id="line2d_32">
     <path d="M 66.6 293.0965  L 76.6 293.0965  L 86.6 293.0965  " style="fill: none; stroke: #1f77b4; stroke-width: 1.5; stroke-linecap: round" />
     <g>
      <use ns4:href="#m4b501cf3c8" x="76.6" y="293.0965" style="fill: #1f77b4; stroke: #ffffff; stroke-width: 0.75" />
     </g>
    </g>
    <g id="text_18">
     
     <g style="fill: #262626" transform="translate(94.6 296.5965) scale(0.1 -0.1)">
      <use ns4:href="#ArialMT-64" />
      <use ns4:href="#ArialMT-65" transform="translate(55.615234 0)" />
      <use ns4:href="#ArialMT-76" transform="translate(111.230469 0)" />
      <use ns4:href="#ArialMT-20" transform="translate(161.230469 0)" />
      <use ns4:href="#ArialMT-73" transform="translate(189.013672 0)" />
      <use ns4:href="#ArialMT-75" transform="translate(239.013672 0)" />
      <use ns4:href="#ArialMT-62" transform="translate(294.628906 0)" />
     </g>
    </g>
   </g>
  </g>
 </g>
 <defs>
  <clipPath id="pffb54f920f">
   <rect x="57.6" y="41.472" width="357.12" height="266.112" />
  </clipPath>
 </defs>
</svg>